<svg width="25" height="24" viewBox="0 0 25 24" fill="none" xmlns="http://www.w3.org/2000/svg">
<g id="error">
<mask id="mask0_12683_1160" style="mask-type:alpha" maskUnits="userSpaceOnUse" x="0" y="0" width="25" height="24">
<rect id="Bounding box" x="0.5" width="24" height="24" fill="#D9D9D9"/>
</mask>
<g mask="url(#mask0_12683_1160)">
<path id="error_2" d="M12.4998 17C12.7499 17 12.9598 16.9154 13.1293 16.7463C13.2986 16.5769 13.3833 16.3672 13.3833 16.117C13.3833 15.8668 13.2987 15.657 13.1295 15.4875C12.9602 15.318 12.7504 15.2333 12.5003 15.2333C12.2501 15.2333 12.0403 15.3179 11.8708 15.4873C11.7014 15.6564 11.6168 15.8662 11.6168 16.1165C11.6168 16.3667 11.7013 16.5764 11.8705 16.7458C12.0398 16.9153 12.2496 17 12.4998 17ZM11.7168 13.1168H13.3833V6.9H11.7168V13.1168ZM12.5045 22C11.124 22 9.82675 21.7375 8.61275 21.2125C7.39875 20.6875 6.33892 19.9723 5.43325 19.0668C4.52775 18.1611 3.8125 17.1008 3.2875 15.886C2.7625 14.6712 2.5 13.3731 2.5 11.9918C2.5 10.6104 2.7625 9.31225 3.2875 8.09725C3.8125 6.88242 4.52775 5.825 5.43325 4.925C6.33892 4.025 7.39917 3.3125 8.614 2.7875C9.82883 2.2625 11.1269 2 12.5083 2C13.8896 2 15.1878 2.2625 16.4028 2.7875C17.6176 3.3125 18.675 4.025 19.575 4.925C20.475 5.825 21.1875 6.88333 21.7125 8.1C22.2375 9.31667 22.5 10.6152 22.5 11.9955C22.5 13.376 22.2375 14.6733 21.7125 15.8873C21.1875 17.1013 20.475 18.16 19.575 19.0635C18.675 19.967 17.6167 20.6823 16.4 21.2095C15.1833 21.7365 13.8848 22 12.5045 22Z" fill="white"/>
</g>
</g>
</svg>
