<svg width="21" height="24" viewBox="0 0 21 24" fill="none" xmlns="http://www.w3.org/2000/svg">
<g id="arrow-left" clip-path="url(#clip0_12632_3140)">
<path id="Primary" d="M0.44043 10.9402C-0.145508 11.5262 -0.145508 12.4777 0.44043 13.0637L7.94043 20.5637C8.52637 21.1496 9.47793 21.1496 10.0639 20.5637C10.6498 19.9777 10.6498 19.0262 10.0639 18.4402L5.11855 13.4996H19.4998C20.3295 13.4996 20.9998 12.8293 20.9998 11.9996C20.9998 11.1699 20.3295 10.4996 19.4998 10.4996H5.12324L10.0592 5.55898C10.6451 4.97305 10.6451 4.02148 10.0592 3.43555C9.47324 2.84961 8.52168 2.84961 7.93574 3.43555L0.435742 10.9355L0.44043 10.9402Z" fill="#1E2859"/>
</g>
<defs>
<clipPath id="clip0_12632_3140">
<rect width="21" height="24" fill="white"/>
</clipPath>
</defs>
</svg>
