<svg width="24" height="25" viewBox="0 0 24 25" fill="none" xmlns="http://www.w3.org/2000/svg">
<g id="Logo">
<path id="Initiator" d="M23.9998 12.2578C23.9998 5.63045 18.6271 0.257812 11.9998 0.257812C5.3724 0.257812 -0.000244141 5.63045 -0.000244141 12.2578C-0.000244141 17.8853 3.87432 22.6076 9.10104 23.9045V15.925H6.62664V12.2578H9.10104V10.6777C9.10104 6.59333 10.9495 4.70021 14.9594 4.70021C15.7198 4.70021 17.0316 4.84949 17.5682 4.99829V8.32229C17.285 8.29253 16.793 8.27765 16.182 8.27765C14.2145 8.27765 13.4542 9.02309 13.4542 10.9609V12.2578H17.3738L16.7004 15.925H13.4542V24.17C19.3961 23.4524 24.0002 18.3932 24.0002 12.2578H23.9998Z" fill="white"/>
</g>
</svg>
