<svg width="100" height="66" viewBox="0 0 100 66" fill="none" xmlns="http://www.w3.org/2000/svg">
<g id="Layer_1" clip-path="url(#clip0_12717_37)">
<path id="Vector" d="M44.809 45.8856L36.9033 18.7812L28.9976 45.8856H44.809Z" fill="white"/>
<path id="Vector_2" d="M67.5888 45.8856L59.6831 18.7812L51.7778 45.8856H67.5888Z" fill="white"/>
<path id="Vector_3" d="M40.3877 0L48.2934 27.1039L56.1987 0H40.3877Z" fill="white"/>
<path id="Vector_4" d="M0 56.4805V58.0963H2.52133V65.1031H4.37002V58.0963H6.87815V56.4805H0Z" fill="white"/>
<path id="Vector_5" d="M13.1893 65.1031L11.4962 62.0402H10.1519V65.1031H8.31543V56.4805H12.3494C14.1467 56.4805 15.2582 57.657 15.2582 59.2596C15.2899 59.841 15.1173 60.4152 14.7703 60.8828C14.4233 61.3504 13.9237 61.682 13.3581 61.8201L15.31 65.1031H13.1893ZM13.3713 59.2469C13.3701 59.0849 13.3351 58.925 13.2686 58.7773C13.2021 58.6296 13.1056 58.4974 12.9851 58.3891C12.8646 58.2808 12.7229 58.1988 12.5689 58.1484C12.415 58.098 12.2522 58.0803 12.091 58.0963H10.1519V60.4234H12.091C12.2542 60.4389 12.4189 60.4199 12.5743 60.3676C12.7296 60.3153 12.8723 60.231 12.993 60.1201C13.1137 60.0092 13.2098 59.8741 13.2749 59.7237C13.3401 59.5733 13.3729 59.4108 13.3713 59.2469Z" fill="white"/>
<path id="Vector_6" d="M18.3999 56.4805H16.5635V65.1036H18.3999V56.4805Z" fill="white"/>
<path id="Vector_7" d="M25.7763 65.1036L21.6656 59.4793V65.1036H19.8296V56.4805H21.7169L25.7127 61.8974V56.4805H27.5477V65.1036H25.7763Z" fill="white"/>
<path id="Vector_8" d="M30.815 56.4805H28.9785V65.1036H30.815V56.4805Z" fill="white"/>
<path id="Vector_9" d="M34.7669 65.1036V58.0963H32.2451V56.4805H39.1237V58.0963H36.6151V65.1036H34.7669Z" fill="white"/>
<path id="Vector_10" d="M43.3256 65.1036V61.5736L40.0161 56.4805H42.1109L44.2433 59.9323L46.3767 56.4805H48.2815L44.9852 61.5736L45.162 65.1036H43.3256Z" fill="white"/>
<path id="Vector_11" d="M60.2875 65.1036V58.8854L57.8572 65.1036H57.0554L54.625 58.8854V65.1036H52.7896V56.4805H55.3627L57.4565 61.8715L59.5508 56.4805H62.1367V65.1036H60.2875Z" fill="white"/>
<path id="Vector_12" d="M63.5674 65.1036V56.4805H69.6687V58.0963H65.4033V59.9063H69.5792V61.5227H65.4033V63.4873H69.6687V65.1036H63.5674Z" fill="white"/>
<path id="Vector_13" d="M73.6209 65.1036V58.0963H71.0991V56.4805H77.9777V58.0963H75.4687V65.1036H73.6209Z" fill="white"/>
<path id="Vector_14" d="M84.2821 65.1031L82.589 62.0402H81.2442V65.1031H79.4082V56.4805H83.4421C85.2395 56.4805 86.3514 57.657 86.3514 59.2596C86.383 59.8411 86.2103 60.4153 85.8633 60.8829C85.5162 61.3505 85.0166 61.682 84.4509 61.8201L86.4023 65.1031H84.2821ZM84.4636 59.2469C84.4624 59.085 84.4275 58.925 84.361 58.7774C84.2946 58.6297 84.198 58.4975 84.0776 58.3892C83.9572 58.2809 83.8155 58.199 83.6616 58.1485C83.5077 58.0981 83.345 58.0803 83.1838 58.0963H81.2442V60.4234H83.1838C83.347 60.4388 83.5116 60.4198 83.6669 60.3675C83.8222 60.3152 83.9649 60.2309 84.0855 60.1199C84.2062 60.009 84.3022 59.874 84.3673 59.7236C84.4324 59.5732 84.4652 59.4108 84.4636 59.2469Z" fill="white"/>
<path id="Vector_15" d="M87.5752 60.7978C87.5572 60.2028 87.6619 59.6105 87.8829 59.0577C88.104 58.505 88.4365 58.0037 88.8599 57.5852C89.2833 57.1667 89.7883 56.84 90.3436 56.6254C90.8988 56.4107 91.4924 56.3128 92.0871 56.3378C92.681 56.3141 93.2734 56.413 93.8274 56.6283C94.3814 56.8435 94.8851 57.1705 95.3072 57.5889C95.7293 58.0073 96.0608 58.5082 96.2809 59.0602C96.5011 59.6123 96.6052 60.2038 96.5868 60.7978C96.6052 61.3919 96.5011 61.9834 96.2809 62.5354C96.0608 63.0875 95.7293 63.5883 95.3072 64.0067C94.8851 64.4251 94.3814 64.7522 93.8274 64.9674C93.2734 65.1827 92.681 65.2815 92.0871 65.2579C91.4924 65.2828 90.8988 65.1849 90.3436 64.9703C89.7883 64.7557 89.2833 64.4289 88.8599 64.0104C88.4366 63.5919 88.104 63.0907 87.8829 62.5379C87.6619 61.9852 87.5572 61.3928 87.5752 60.7978ZM94.699 60.7978C94.699 59.1825 93.6771 57.9664 92.0871 57.9664C90.485 57.9664 89.4626 59.1825 89.4626 60.7978C89.4626 62.4005 90.485 63.6293 92.0871 63.6293C93.6771 63.6293 94.699 62.4005 94.699 60.7978Z" fill="white"/>
<path id="Vector_16" d="M97.7647 57.4555C97.7643 57.3087 97.793 57.1632 97.8491 57.0274C97.9051 56.8917 97.9874 56.7684 98.0913 56.6645C98.1951 56.5607 98.3184 56.4784 98.4542 56.4223C98.5899 56.3663 98.7354 56.3376 98.8823 56.3379C99.0292 56.3371 99.1749 56.3655 99.3109 56.4214C99.4468 56.4773 99.5704 56.5595 99.6743 56.6635C99.7782 56.7674 99.8605 56.8909 99.9164 57.0269C99.9723 57.1628 100.001 57.3085 99.9999 57.4555C100 57.6024 99.9716 57.7479 99.9156 57.8837C99.8596 58.0195 99.7773 58.1428 99.6734 58.2467C99.5696 58.3505 99.4462 58.4328 99.3104 58.4889C99.1746 58.5449 99.0291 58.5735 98.8823 58.5731C98.5859 58.573 98.3017 58.4552 98.0922 58.2456C97.8826 58.036 97.7648 57.7519 97.7647 57.4555ZM97.923 57.4555C97.9231 57.7099 98.0241 57.9539 98.204 58.1339C98.3839 58.3139 98.6278 58.415 98.8823 58.4152C99.136 58.4141 99.3789 58.3124 99.5578 58.1325C99.7367 57.9527 99.837 57.7092 99.8368 57.4555C99.8372 57.3301 99.8128 57.2058 99.765 57.0898C99.7172 56.9738 99.6469 56.8685 99.5581 56.7798C99.4694 56.6911 99.364 56.6208 99.248 56.5731C99.132 56.5253 99.0077 56.501 98.8823 56.5015C98.7565 56.5005 98.6317 56.5245 98.5152 56.572C98.3987 56.6195 98.2928 56.6897 98.2036 56.7784C98.1144 56.8671 98.0437 56.9726 97.9955 57.0889C97.9474 57.2051 97.9227 57.3297 97.923 57.4555ZM98.8559 57.5927H98.6296V58.0989H98.4557V56.8178H98.9775C99.0303 56.8155 99.0831 56.8239 99.1326 56.8424C99.1821 56.861 99.2274 56.8893 99.2658 56.9257C99.3041 56.9621 99.3348 57.0059 99.3558 57.0544C99.3769 57.1029 99.388 57.1552 99.3885 57.208C99.3903 57.3005 99.358 57.3903 99.2977 57.4604C99.2375 57.5305 99.1535 57.5759 99.0618 57.588L99.4045 58.0989H99.1886L98.8559 57.5927ZM98.6296 56.971V57.4343H98.9775C99.0377 57.4333 99.0953 57.4093 99.1384 57.3672C99.1815 57.3252 99.2069 57.2682 99.2094 57.208C99.2091 57.1461 99.1847 57.0868 99.1415 57.0425C99.0982 56.9983 99.0394 56.9726 98.9775 56.971H98.6296Z" fill="white"/>
</g>
<defs>
<clipPath id="clip0_12717_37">
<rect width="100" height="65.2583" fill="white"/>
</clipPath>
</defs>
</svg>
