<svg width="240" height="132" viewBox="0 0 240 132" fill="none" xmlns="http://www.w3.org/2000/svg">
<path d="M217.366 106.167C217.502 106.167 217.593 106.076 217.593 105.938V103.684C217.593 103.548 217.502 103.457 217.366 103.457H216.819C216.09 103.457 215.816 103.183 215.816 102.363V97.4895C215.816 97.3984 215.861 97.3532 215.952 97.3532H217.366C217.502 97.3532 217.593 97.2622 217.593 97.1247V95.2348C217.593 95.0986 217.502 95.0063 217.366 95.0063H215.952C215.861 95.0063 215.816 94.9611 215.816 94.87V91.9097C215.816 91.7735 215.725 91.6811 215.587 91.6811H212.875C212.739 91.6811 212.648 91.7735 212.648 91.9097V94.87C212.648 94.9611 212.603 95.0063 212.51 95.0063H211.828C211.69 95.0063 211.599 95.0986 211.599 95.2348V97.1247C211.599 97.2622 211.69 97.3532 211.828 97.3532H212.51C212.603 97.3532 212.648 97.3984 212.648 97.4895V102.499C212.648 105.027 213.605 106.166 216.157 106.166H217.366V106.167ZM206.102 106.281C207.993 106.281 209.474 105.416 210.272 104.209C210.34 104.095 210.34 103.982 210.226 103.89L208.244 102.593C208.107 102.5 207.993 102.524 207.903 102.638C207.424 103.298 206.944 103.594 206.148 103.594C205.304 103.594 204.689 103.207 204.438 102.41C204.279 101.955 204.234 101.431 204.234 100.52C204.234 99.6099 204.279 99.0856 204.438 98.6304C204.689 97.833 205.304 97.4463 206.148 97.4463C206.945 97.4463 207.424 97.742 207.903 98.4025C207.994 98.5168 208.107 98.54 208.244 98.4477L210.226 97.1506C210.34 97.0595 210.34 96.9459 210.272 96.8316C209.474 95.6256 207.993 94.7591 206.102 94.7591C203.778 94.7591 202 95.8302 201.34 97.8802C201.111 98.5407 200.998 99.36 200.998 100.521C200.998 101.682 201.112 102.502 201.34 103.163C202.001 105.211 203.778 106.281 206.102 106.281ZM198.818 106.031C198.954 106.031 199.045 105.938 199.045 105.802V95.2355C199.045 95.0993 198.954 95.0069 198.818 95.0069H196.083C195.947 95.0069 195.854 95.0993 195.854 95.2355V105.802C195.854 105.938 195.947 106.031 196.083 106.031H198.818ZM198.818 93.2553C198.954 93.2553 199.045 93.1629 199.045 93.0267V90.7721C199.045 90.6359 198.954 90.5448 198.818 90.5448H196.083C195.947 90.5448 195.854 90.6359 195.854 90.7721V93.0267C195.854 93.1629 195.947 93.2553 196.083 93.2553H198.818ZM189.308 106.031C189.445 106.031 189.537 105.938 189.537 105.802V99.9953C189.537 98.5154 190.061 97.6503 191.246 97.6044C191.793 97.5812 192.317 97.7639 192.841 98.1054C192.977 98.1739 193.068 98.1739 193.159 98.0603L194.435 95.7372C194.503 95.601 194.481 95.5099 194.367 95.4196C193.888 95.0082 193.159 94.7584 192.43 94.7584C191.086 94.7584 190.082 95.2827 189.559 96.1711H189.536V95.2375C189.536 95.1013 189.445 95.0089 189.307 95.0089H186.574C186.436 95.0089 186.345 95.1013 186.345 95.2375V105.804C186.345 105.94 186.436 106.033 186.574 106.033H189.308V106.031ZM184.132 106.167C184.268 106.167 184.36 106.076 184.36 105.938V103.684C184.36 103.548 184.268 103.457 184.132 103.457H183.584C182.856 103.457 182.582 103.183 182.582 102.363V97.4895C182.582 97.3984 182.627 97.3532 182.719 97.3532H184.132C184.268 97.3532 184.36 97.2622 184.36 97.1247V95.2348C184.36 95.0986 184.268 95.0063 184.132 95.0063H182.719C182.627 95.0063 182.582 94.9611 182.582 94.87V91.9097C182.582 91.7735 182.491 91.6811 182.354 91.6811H179.642C179.506 91.6811 179.415 91.7735 179.415 91.9097V94.87C179.415 94.9611 179.368 95.0063 179.277 95.0063H178.594C178.456 95.0063 178.365 95.0986 178.365 95.2348V97.1247C178.365 97.2622 178.456 97.3532 178.594 97.3532H179.277C179.368 97.3532 179.415 97.3984 179.415 97.4895V102.499C179.415 105.027 180.371 106.166 182.923 106.166H184.132V106.167ZM172.323 106.281C175.468 106.281 177.223 104.754 177.245 102.5C177.245 100.656 176.174 99.4039 173.577 99.154L172.369 99.0165C171.116 98.9035 170.842 98.6065 170.842 98.1061C170.842 97.5599 171.297 97.1958 172.232 97.1958C173.372 97.1958 174.465 97.6057 175.218 98.0842C175.332 98.152 175.445 98.152 175.537 98.0377L176.813 96.4668C176.904 96.3525 176.881 96.2163 176.79 96.1259C175.764 95.3518 174.192 94.7591 172.323 94.7591C169.452 94.7591 167.789 96.1259 167.789 98.2895C167.789 100.27 169.065 101.431 171.388 101.66L172.619 101.796C173.897 101.91 174.192 102.229 174.192 102.754C174.192 103.368 173.645 103.8 172.483 103.8C171.343 103.8 170.091 103.345 169.111 102.594C168.996 102.502 168.882 102.502 168.791 102.594L167.311 104.256C167.22 104.347 167.22 104.485 167.311 104.575C168.359 105.483 170.022 106.281 172.323 106.281ZM165.383 106.031C165.521 106.031 165.612 105.938 165.612 105.802V95.2355C165.612 95.0993 165.521 95.0069 165.383 95.0069H162.65C162.512 95.0069 162.421 95.0993 162.421 95.2355V105.802C162.421 105.938 162.512 106.031 162.65 106.031H165.383ZM165.383 93.2553C165.521 93.2553 165.612 93.1629 165.612 93.0267V90.7721C165.612 90.6359 165.521 90.5448 165.383 90.5448H162.65C162.512 90.5448 162.421 90.6359 162.421 90.7721V93.0267C162.421 93.1629 162.512 93.2553 162.65 93.2553H165.383ZM151.77 102.91V93.6646C151.77 93.5723 151.816 93.5271 151.907 93.5271H153.661C155.211 93.5271 156.145 93.9823 156.532 95.2355C156.692 95.6907 156.783 96.2834 156.783 98.2875C156.783 100.29 156.692 100.883 156.532 101.338C156.145 102.591 155.211 103.047 153.661 103.047H151.907C151.816 103.047 151.77 103.002 151.77 102.91ZM148.421 105.802C148.421 105.938 148.513 106.031 148.649 106.031H154.415C157.126 106.031 159.017 104.869 159.769 102.547C160.042 101.68 160.179 100.815 160.179 98.2882C160.179 95.7598 160.042 94.8946 159.769 94.0294C159.017 91.7064 157.126 90.5455 154.415 90.5455H148.649C148.513 90.5455 148.421 90.6365 148.421 90.7728V105.802ZM140.856 106.167C140.992 106.167 141.085 106.076 141.085 105.938V103.684C141.085 103.548 140.992 103.457 140.856 103.457H140.309C139.58 103.457 139.306 103.183 139.306 102.363V97.4895C139.306 97.3984 139.351 97.3532 139.444 97.3532H140.856C140.992 97.3532 141.085 97.2622 141.085 97.1247V95.2348C141.085 95.0986 140.992 95.0063 140.856 95.0063H139.444C139.351 95.0063 139.306 94.9611 139.306 94.87V91.9097C139.306 91.7735 139.215 91.6811 139.079 91.6811H136.367C136.229 91.6811 136.138 91.7735 136.138 91.9097V94.87C136.138 94.9611 136.093 95.0063 136.002 95.0063H135.318C135.182 95.0063 135.089 95.0986 135.089 95.2348V97.1247C135.089 97.2622 135.182 97.3532 135.318 97.3532H136.002C136.093 97.3532 136.138 97.3984 136.138 97.4895V102.499C136.138 105.027 137.095 106.166 139.648 106.166H140.856V106.167ZM133.223 106.031C133.359 106.031 133.451 105.938 133.451 105.802V95.2355C133.451 95.0993 133.359 95.0069 133.223 95.0069H130.488C130.352 95.0069 130.261 95.0993 130.261 95.2355V105.802C130.261 105.938 130.352 106.031 130.488 106.031H133.223ZM133.223 93.2553C133.359 93.2553 133.451 93.1629 133.451 93.0267V90.7721C133.451 90.6359 133.359 90.5448 133.223 90.5448H130.488C130.352 90.5448 130.261 90.6359 130.261 90.7721V93.0267C130.261 93.1629 130.352 93.2553 130.488 93.2553H133.223ZM123.498 106.281C126.642 106.281 128.397 104.754 128.42 102.5C128.42 100.656 127.348 99.4039 124.751 99.154L123.544 99.0165C122.29 98.9035 122.016 98.6065 122.016 98.1061C122.016 97.5599 122.473 97.1958 123.407 97.1958C124.546 97.1958 125.64 97.6057 126.392 98.0842C126.507 98.152 126.621 98.152 126.711 98.0377L127.987 96.4668C128.078 96.3525 128.056 96.2163 127.965 96.1259C126.939 95.3518 125.367 94.7591 123.499 94.7591C120.628 94.7591 118.964 96.1259 118.964 98.2895C118.964 100.27 120.24 101.431 122.564 101.66L123.795 101.796C125.071 101.91 125.367 102.229 125.367 102.754C125.367 103.368 124.82 103.8 123.657 103.8C122.519 103.8 121.265 103.345 120.285 102.594C120.171 102.502 120.058 102.502 119.966 102.594L118.485 104.256C118.394 104.347 118.394 104.485 118.485 104.575C119.533 105.483 121.196 106.281 123.498 106.281ZM116.579 106.031C116.716 106.031 116.808 105.938 116.808 105.802V98.8563C116.808 96.4436 115.486 94.7571 113.048 94.7571C111.635 94.7571 110.702 95.3265 110.199 96.0103H110.177V95.2362C110.177 95.0999 110.086 95.0076 109.948 95.0076H107.215C107.077 95.0076 106.986 95.0999 106.986 95.2362V105.803C106.986 105.939 107.077 106.032 107.215 106.032H109.948C110.086 106.032 110.177 105.939 110.177 105.803V99.4716C110.177 98.2656 110.815 97.4689 111.908 97.4689C113.048 97.4689 113.618 98.2656 113.618 99.4716V105.803C113.618 105.939 113.709 106.032 113.845 106.032L116.579 106.031ZM99.5152 103.889C98.4667 103.889 97.9201 103.502 97.9201 102.728C97.9201 101.863 98.5351 101.475 99.8789 101.475H101.429C101.52 101.475 101.566 101.52 101.566 101.613V102.364C101.566 103.389 100.882 103.889 99.5152 103.889ZM104.368 106.031C104.505 106.031 104.597 105.938 104.597 105.802V98.7434C104.597 95.987 103.298 94.7571 99.6974 94.7571C97.8749 94.7571 96.5304 95.1903 95.5956 95.8508C95.4812 95.9193 95.4593 96.0336 95.5271 96.1698L96.5524 97.9692C96.6209 98.0835 96.7352 98.1054 96.8496 98.0144C97.3729 97.6263 98.1927 97.3087 99.3104 97.3087C101.064 97.3087 101.566 97.7858 101.566 98.8111V99.2211C101.566 99.3135 101.52 99.3587 101.429 99.3587H99.4687C96.7352 99.3587 94.8895 100.474 94.8895 102.91C94.8895 105.257 96.5976 106.281 98.5578 106.281C100.062 106.281 101.019 105.803 101.588 105.074H101.612V105.803C101.612 105.939 101.703 106.032 101.839 106.032L104.368 106.031ZM88.8807 106.031C89.017 106.031 89.1081 105.938 89.1081 105.802V99.9953C89.1081 98.5154 89.6327 97.6503 90.8176 97.6044C91.3641 97.5812 91.8881 97.7639 92.4127 98.1054C92.549 98.1739 92.6401 98.1739 92.7318 98.0603L94.0078 95.7372C94.0756 95.601 94.053 95.5099 93.9393 95.4196C93.4606 95.0082 92.7325 94.7584 92.0024 94.7584C90.658 94.7584 89.656 95.2827 89.1313 96.1711H89.1081V95.2375C89.1081 95.1013 89.017 95.0089 88.8807 95.0089H86.1459C86.0096 95.0089 85.9172 95.1013 85.9172 95.2375V105.804C85.9172 105.94 86.0096 106.033 86.1459 106.033H88.8807V106.031ZM81.5361 106.031C81.6737 106.031 81.7648 105.938 81.7648 105.802V93.6646C81.7648 93.5723 81.81 93.5271 81.9011 93.5271H85.8208C85.9571 93.5271 86.0482 93.4361 86.0482 93.2998V90.7714C86.0482 90.6352 85.9571 90.5442 85.8208 90.5442H74.3584C74.2221 90.5442 74.131 90.6352 74.131 90.7714V93.2998C74.131 93.4361 74.2221 93.5271 74.3584 93.5271H78.278C78.3691 93.5271 78.4144 93.5723 78.4144 93.6646V105.802C78.4144 105.938 78.5054 106.031 78.6431 106.031H81.5361ZM61.0064 99.3587C60.914 99.3587 60.8687 99.3135 60.8687 99.2211C60.8687 98.8802 60.914 98.6297 60.9831 98.4011C61.2338 97.6503 61.9173 97.1951 62.8289 97.1951C63.7398 97.1951 64.424 97.6503 64.6747 98.4011C64.7432 98.6297 64.7891 98.8796 64.7891 99.2211C64.7891 99.3135 64.7438 99.3587 64.6527 99.3587H61.0064ZM62.9652 106.281C64.9938 106.281 66.6109 105.552 67.6601 104.437C67.7512 104.344 67.7512 104.208 67.6369 104.118L66.1335 102.705C66.0411 102.592 65.9287 102.614 65.8143 102.705C65.176 103.298 64.3788 103.685 63.2844 103.685C62.1447 103.685 61.3023 103.183 61.0064 102.228C60.9379 102.045 60.892 101.84 60.8687 101.613C60.8687 101.521 60.914 101.476 61.0064 101.476H67.6827C67.841 101.476 67.9334 101.385 67.9334 101.248C67.9334 99.3806 67.7958 98.5839 67.5684 97.8549C66.9301 95.9193 65.2438 94.7571 62.8063 94.7571C60.4585 94.7571 58.7038 95.896 58.0662 97.8782C57.8374 98.5606 57.7011 99.358 57.7011 100.519C57.7011 101.658 57.8607 102.455 58.0881 103.138C58.7271 105.119 60.4585 106.281 62.9652 106.281ZM55.6053 106.031C55.7416 106.031 55.8341 105.938 55.8341 105.802V98.8563C55.8341 96.4436 54.5116 94.7571 52.074 94.7571C50.6604 94.7571 49.7275 95.3265 49.2249 96.0103H49.2029V95.2362C49.2029 95.0999 49.1118 95.0076 48.9742 95.0076H46.2408C46.1031 95.0076 46.012 95.0999 46.012 95.2362V105.803C46.012 105.939 46.1031 106.032 46.2408 106.032H48.9742C49.1118 106.032 49.2029 105.939 49.2029 105.803V99.4716C49.2029 98.2656 49.8406 97.4689 50.9344 97.4689C52.074 97.4689 52.6438 98.2656 52.6438 99.4716V105.803C52.6438 105.939 52.7349 106.032 52.8712 106.032L55.6053 106.031ZM38.5398 103.889C37.4926 103.889 36.946 103.502 36.946 102.728C36.946 101.863 37.5611 101.475 38.9048 101.475H40.4547C40.5458 101.475 40.5924 101.52 40.5924 101.613V102.364C40.5924 103.389 39.9082 103.889 38.5398 103.889ZM43.3943 106.031C43.5306 106.031 43.6217 105.938 43.6217 105.802V98.7434C43.6217 95.987 42.3238 94.7571 38.7233 94.7571C36.8995 94.7571 35.5564 95.1903 34.6215 95.8508C34.5071 95.9193 34.4852 96.0336 34.553 96.1698L35.5783 97.9692C35.6468 98.0835 35.7611 98.1054 35.8742 98.0144C36.3988 97.6263 37.2186 97.3087 38.335 97.3087C40.0897 97.3087 40.5924 97.7858 40.5924 98.8111V99.2211C40.5924 99.3135 40.5458 99.3587 40.4547 99.3587H38.4946C35.7611 99.3587 33.9154 100.474 33.9154 102.91C33.9154 105.257 35.6235 106.281 37.5837 106.281C39.0877 106.281 40.0445 105.803 40.6143 105.074H40.6376V105.803C40.6376 105.939 40.7287 106.032 40.865 106.032L43.3943 106.031ZM21.9523 105.802C21.9523 105.938 22.0434 106.031 22.1811 106.031H32.275C32.4113 106.031 32.5024 105.938 32.5024 105.802V103.274C32.5024 103.138 32.4113 103.047 32.275 103.047H25.4384C25.3473 103.047 25.3021 103.001 25.3021 102.909V90.7714C25.3021 90.6352 25.211 90.5442 25.0734 90.5442H22.1804C22.0428 90.5442 21.9517 90.6352 21.9517 90.7714L21.9523 105.802Z" fill="white"/>
<path d="M85.7337 24.7241L83.1413 39.6213C83.0801 39.9808 83.3574 40.3097 83.7224 40.3097H100.927C101.293 40.3097 101.571 40.64 101.507 40.9995L95.8397 73.1443C95.7772 73.5051 96.0531 73.834 96.4195 73.834H113.637C113.922 73.834 114.168 73.6294 114.217 73.347L119.881 40.7968C119.93 40.5144 120.173 40.3097 120.461 40.3097H136.939C137.225 40.3097 137.471 40.1051 137.52 39.8227L140.116 24.9254C140.177 24.5659 139.903 24.237 139.536 24.237H86.3142C86.0276 24.237 85.783 24.4423 85.7337 24.7241ZM63.1402 24.7294L54.7098 73.1463C54.6473 73.5071 54.9232 73.8347 55.2896 73.8347H92.5617C92.8476 73.8347 93.0923 73.6307 93.1415 73.349L95.8138 58.152C95.8763 57.7912 95.6003 57.4623 95.234 57.4623H78.1119C77.7482 57.4623 77.4709 57.1333 77.5321 56.7739L83.0828 24.9321C83.1439 24.5726 82.868 24.2423 82.5016 24.2423H63.7193C63.4334 24.2416 63.1894 24.4483 63.1402 24.7294ZM184.735 48.7508C183.406 62.2014 171.254 73.834 159.378 73.834L117.594 73.8413C117.23 73.8413 116.954 73.5164 117.012 73.1589L119.488 57.9487C119.534 57.6643 119.78 57.4556 120.07 57.4556L154.707 57.4543C155.072 57.4543 155.349 57.7832 155.287 58.1414L154.523 62.5775C154.43 63.1211 155.07 63.4832 155.488 63.1224L171.557 49.2339C171.798 49.0252 171.83 48.6644 171.629 48.4179L160.389 34.6064C160.07 34.2137 159.44 34.3791 159.354 34.8748L158.488 39.8293C158.439 40.1104 158.195 40.315 157.908 40.315H140.75C140.385 40.315 140.107 39.9861 140.17 39.6266L142.762 24.7234C142.81 24.441 143.056 24.2363 143.341 24.2363H166.377C175.441 24.237 186.043 35.4795 184.735 48.7508Z" fill="white"/>
</svg>
