<svg width="24" height="24" viewBox="0 0 24 24" fill="none" xmlns="http://www.w3.org/2000/svg">
<g id="g_translate">
<mask id="mask0_12717_120" style="mask-type:alpha" maskUnits="userSpaceOnUse" x="0" y="0" width="24" height="24">
<rect id="Bounding box" width="24" height="24" fill="#D9D9D9"/>
</mask>
<g mask="url(#mask0_12717_120)">
<path id="g_translate_2" d="M12.0168 22L11 19H4C3.42783 19 2.95142 18.8098 2.57075 18.4293C2.19025 18.0486 2 17.5722 2 17V4C2 3.42783 2.19025 2.95142 2.57075 2.57075C2.95142 2.19025 3.42783 2 4 2H10L10.875 4.99H20C20.5833 4.99 21.0625 5.17692 21.4375 5.55075C21.8125 5.92442 22 6.40192 22 6.98325V20C22 20.5722 21.8128 21.0486 21.4385 21.4293C21.0642 21.8098 20.5858 22 20.0033 22H12.0168ZM7.16175 14.6C8.31508 14.6 9.25975 14.2276 9.99575 13.4828C10.7319 12.7381 11.1 11.7716 11.1 10.5833C11.1 10.4389 11.0986 10.3126 11.0958 10.2043C11.0931 10.0959 11.075 9.9945 11.0415 9.9H7.075V11.4333H9.31675C9.18342 11.9106 8.92925 12.2813 8.55425 12.5455C8.17925 12.8097 7.72508 12.9418 7.19175 12.9418C6.54175 12.9418 5.98342 12.7068 5.51675 12.2368C5.05008 11.7669 4.81675 11.188 4.81675 10.5C4.81675 9.812 5.05008 9.23309 5.51675 8.76325C5.98342 8.29325 6.54025 8.05825 7.18725 8.05825C7.48608 8.05825 7.76817 8.11242 8.0335 8.22075C8.299 8.32908 8.53967 8.49158 8.7555 8.70825L9.975 7.55C9.63617 7.18333 9.21808 6.9 8.72075 6.7C8.22358 6.5 7.70558 6.4 7.16675 6.4C6.03892 6.4 5.07917 6.79858 4.2875 7.59575C3.49583 8.39309 3.1 9.36117 3.1 10.5C3.1 11.6388 3.497 12.6069 4.291 13.4043C5.08483 14.2014 6.04175 14.6 7.16175 14.6ZM13.8568 15.0833L14.4168 14.5583C14.1834 14.2749 13.9681 14.0028 13.7708 13.7418C13.5736 13.4806 13.3833 13.2 13.2 12.9L13.8568 15.0833ZM15.1033 13.8083C15.5739 13.2583 15.9312 12.7333 16.175 12.2333C16.4187 11.7333 16.5826 11.3416 16.6668 11.0583H12.6918L12.975 12.125H13.975C14.1083 12.3717 14.2667 12.6389 14.45 12.9268C14.6333 13.2144 14.8511 13.5083 15.1033 13.8083ZM13.0168 21H20C20.2888 21 20.5278 20.9041 20.7168 20.7123C20.9056 20.5203 21 20.2824 21 19.9988V6.98325C21 6.69442 20.9056 6.45558 20.7168 6.26675C20.5278 6.07775 20.2888 5.98325 20 5.98325H11.1918L12.35 10.05H14.325V8.98325H15.35V10.05H19.0168V11.0583H17.725C17.5695 11.6916 17.3251 12.3091 16.9918 12.9108C16.6584 13.5124 16.2668 14.0723 15.8168 14.5905L18.5418 17.273L17.8168 18L15.1 15.3L14.2 16.2083L15.0168 19L13.0168 21Z" fill="white"/>
</g>
</g>
</svg>
