<svg xmlns="http://www.w3.org/2000/svg" width="20" height="20" viewBox="0 0 20 20" fill="none">
  <path d="M9.32812 17.4688C6.54375 17.2219 4.19688 15.4531 3.125 13H6.44375C7.14375 15.2688 8.50938 16.7437 9.32812 17.4688ZM8.4 15.7281C7.86562 15.0219 7.33437 14.1156 6.96875 12.9969H13.0344C12.6687 14.1125 12.1375 15.0219 11.6031 15.7281C11.1281 16.3562 10.6531 16.825 10.3 17.1313C10.1875 17.2281 10.0875 17.3125 10.0031 17.3781C9.91875 17.3125 9.81875 17.2313 9.70625 17.1313C9.35313 16.8219 8.87812 16.3562 8.40312 15.7281H8.4ZM6.5 10C6.5 9.08125 6.62187 8.24687 6.81875 7.5H13.1812C13.3781 8.24687 13.5 9.08125 13.5 10C13.5 10.9187 13.3781 11.7531 13.1812 12.5H6.81875C6.61875 11.7531 6.5 10.9187 6.5 10ZM6.30312 7.5C6.1125 8.25313 6 9.0875 6 10C6 10.9125 6.1125 11.7469 6.30312 12.5H2.92813C2.65 11.7188 2.5 10.8781 2.5 10C2.5 9.12187 2.65 8.28125 2.92813 7.5H6.30312ZM6.96875 7C7.33437 5.88438 7.86562 4.975 8.4 4.26875C8.875 3.64062 9.35 3.17188 9.70312 2.86563C9.81563 2.76875 9.91563 2.68437 10 2.61875C10.0844 2.68437 10.1844 2.76562 10.2969 2.86563C10.65 3.175 11.125 3.64062 11.6 4.26875C12.1344 4.975 12.6656 5.88125 13.0312 7H6.96562H6.96875ZM13.7 7.5H17.075C17.35 8.28125 17.5031 9.12187 17.5031 10C17.5031 10.8781 17.3531 11.7188 17.075 12.5H13.7C13.8906 11.7469 14.0031 10.9125 14.0031 10C14.0031 9.0875 13.8906 8.25313 13.7 7.5ZM16.875 7H13.5562C12.8594 4.73125 11.4937 3.25625 10.6719 2.53125C13.4563 2.77812 15.8031 4.54688 16.875 7ZM6.44063 7H3.125C4.19688 4.54688 6.54375 2.77812 9.32812 2.53125C8.50625 3.25625 7.14375 4.73438 6.44375 7H6.44063ZM10.6719 17.4688C11.4937 16.7437 12.8562 15.2656 13.5562 13H16.875C15.8031 15.4531 13.4563 17.2219 10.6719 17.4688ZM10 18C12.1217 18 14.1566 17.1571 15.6569 15.6569C17.1571 14.1566 18 12.1217 18 10C18 7.87827 17.1571 5.84344 15.6569 4.34315C14.1566 2.84285 12.1217 2 10 2C7.87827 2 5.84344 2.84285 4.34315 4.34315C2.84285 5.84344 2 7.87827 2 10C2 12.1217 2.84285 14.1566 4.34315 15.6569C5.84344 17.1571 7.87827 18 10 18Z" fill="black"/>
</svg>