<svg width="73" height="16" viewBox="0 0 73 16" fill="none" xmlns="http://www.w3.org/2000/svg">
<g id="Layer_1" clip-path="url(#clip0_12717_106)">
<path id="Vector" d="M13.5531 3.11082C12.4948 4.15726 11.4454 5.19484 10.405 6.22356C10.2363 6.0525 10.086 5.88471 9.91985 5.73473C9.524 5.37751 9.04301 5.22048 8.52209 5.18842C7.17344 5.10543 6.16408 5.71504 5.3955 6.77594C4.78895 7.61319 4.60453 8.56687 4.719 9.58038C4.7758 10.0834 4.97209 10.5358 5.34851 10.89C5.59836 11.1251 5.90409 11.2596 6.23328 11.3393C6.87727 11.495 7.52158 11.5109 8.16667 11.3378C8.30939 11.2995 8.37872 11.2296 8.39743 11.0744C8.43081 10.7973 8.49101 10.5234 8.5444 10.2235H6.37294C6.40505 10.0308 6.43082 9.86327 6.46108 9.6966C6.63312 8.74904 6.80867 7.80211 6.97597 6.85371C6.99749 6.73172 7.04428 6.69948 7.16294 6.6997C9.09851 6.70314 11.0341 6.70406 12.9697 6.70245C13.0141 6.70246 13.0585 6.7073 13.1147 6.71057C13.0523 7.06171 12.9931 7.39864 12.9326 7.73533C12.6934 9.0652 12.454 10.395 12.2144 11.7248C12.0838 12.45 11.9508 13.1747 11.8244 13.9006C11.8197 13.9373 11.8054 13.9721 11.783 14.0015C11.7607 14.0309 11.731 14.0538 11.6969 14.068C10.9676 14.4428 10.1964 14.7017 9.40247 14.8946C8.57496 15.0985 7.73104 15.2282 6.88066 15.2823C5.70376 15.3537 4.55041 15.2529 3.44237 14.8255C2.34814 14.4034 1.43766 13.7397 0.812865 12.7257C0.376375 12.0312 0.109693 11.2429 0.0345826 10.4252C-0.137564 8.47334 0.33434 6.68088 1.41983 5.05877C2.63974 3.23579 4.3276 2.05265 6.43782 1.48637C7.47937 1.21219 8.56309 1.13755 9.6322 1.26638C10.602 1.37586 11.525 1.63436 12.376 2.12184C12.8008 2.35876 13.1809 2.66875 13.4989 3.03767C13.5147 3.05638 13.5282 3.07706 13.5531 3.11082Z" fill="white"/>
<path id="Vector_2" d="M29.3569 0.671968C29.3998 0.669262 29.4427 0.664193 29.4856 0.664187C32.2066 0.663837 34.9277 0.664224 37.6488 0.665346C38.1253 0.665863 38.6033 0.678017 39.0615 0.834161C39.7338 1.0633 40.0341 1.46925 40.0577 2.18002C40.0743 2.68039 39.9695 3.16407 39.8248 3.63781C39.4126 4.98787 38.8398 6.26458 38.0598 7.44323C37.6809 8.02218 37.2342 8.55343 36.7293 9.0256C36.2206 9.49709 35.612 9.75788 34.932 9.84128C34.5423 9.88769 34.1502 9.91232 33.7578 9.91504C32.7714 9.92511 31.7849 9.92073 30.7985 9.91532C30.679 9.91467 30.627 9.95484 30.5804 10.0618C29.9086 11.6041 29.2307 13.1436 28.5592 14.686C28.5159 14.7855 28.4625 14.8101 28.3626 14.8098C27.2633 14.8067 26.164 14.8099 25.0647 14.8055C24.9064 14.8056 24.7487 14.7873 24.5946 14.7511C24.3824 14.6997 24.2655 14.5381 24.2921 14.3217C24.3133 14.1602 24.3571 14.0026 24.4223 13.8534C24.8883 12.7726 25.3584 11.6936 25.8327 10.6163C27.1204 7.67299 28.4076 4.72941 29.6942 1.7856C29.7585 1.63138 29.8048 1.47026 29.8325 1.30542C29.8806 1.04192 29.7724 0.873404 29.5212 0.778746C29.4634 0.756975 29.4064 0.733026 29.3491 0.710078C29.3517 0.697375 29.3543 0.68467 29.3569 0.671968ZM31.8931 7.06305C32.3532 7.06305 32.7965 7.08273 33.2372 7.05749C33.6741 7.03247 34.0445 6.83297 34.3475 6.51282C34.792 6.04335 35.0995 5.48971 35.3295 4.89092C35.4299 4.62944 35.5212 4.36207 35.5043 4.07386C35.4882 3.80051 35.3385 3.62168 35.0734 3.5591C35.0169 3.54384 34.959 3.53441 34.9005 3.53096C34.4582 3.51981 34.0156 3.51374 33.5733 3.50069C33.5372 3.49551 33.5005 3.50363 33.4699 3.52356C33.4394 3.54348 33.417 3.57386 33.407 3.60905C32.9947 4.55655 32.58 5.50298 32.1628 6.44833C32.0739 6.65069 31.9852 6.85311 31.8931 7.06305Z" fill="white"/>
<path id="Vector_3" d="M42.0783 13.0863C41.9771 13.1903 41.876 13.2943 41.7748 13.3983C41.5006 13.6806 41.2247 13.9612 40.9525 14.2454C40.5503 14.6655 40.0659 14.9087 39.4826 14.9451C38.902 14.9813 38.3218 15.007 37.7479 14.8764C37.423 14.8025 37.113 14.6939 36.8525 14.4755C36.4875 14.1693 36.3325 13.7649 36.3703 13.3026C36.3998 12.9777 36.4599 12.6564 36.5499 12.343C36.8303 11.3088 37.2896 10.3322 37.907 9.45778C38.4115 8.75064 39.029 8.17327 39.8519 7.84745C40.2476 7.69078 40.6595 7.64123 41.08 7.64006C42.0456 7.63736 43.0112 7.63523 43.9768 7.63366C44.0521 7.63464 44.1273 7.62865 44.2014 7.61578C44.4437 7.56946 44.6524 7.45661 44.7487 7.22179C44.8339 7.00095 44.9026 6.77408 44.9544 6.54305C44.981 6.43477 44.9043 6.35751 44.8016 6.33055C44.7167 6.30908 44.6294 6.29839 44.5418 6.29872C43.5218 6.29577 42.5019 6.29731 41.4819 6.29246C41.361 6.29356 41.2407 6.27565 41.1253 6.23941C40.8683 6.15326 40.7416 5.91709 40.7987 5.65086C40.8206 5.55279 40.8522 5.45716 40.8931 5.3654C41.1227 4.83968 41.3574 4.31625 41.5861 3.79012C41.5944 3.7586 41.6135 3.73105 41.6402 3.71237C41.6668 3.69369 41.6992 3.68508 41.7315 3.68809C43.6167 3.69525 45.5019 3.69695 47.3871 3.7072C47.8452 3.70969 48.296 3.77725 48.7158 3.97816C49.2458 4.2318 49.4936 4.70075 49.4378 5.28992C49.3999 5.69022 49.2574 6.05411 49.0996 6.41548C48.0925 8.72201 47.0851 11.0284 46.0774 13.3348C45.8747 13.7988 45.6698 14.2619 45.4711 14.7277C45.462 14.759 45.4422 14.7861 45.415 14.8041C45.3879 14.822 45.3552 14.8297 45.323 14.8256C44.3992 14.8232 43.4753 14.8261 42.5515 14.822C42.397 14.8223 42.2428 14.8069 42.0914 14.776C41.7964 14.7137 41.6724 14.5147 41.7045 14.2125C41.7395 13.8825 41.9042 13.6022 42.0316 13.3071C42.0603 13.2406 42.0883 13.1738 42.1166 13.1071L42.0783 13.0863ZM43.7211 9.5547C43.2722 9.57038 42.841 9.55827 42.4167 9.60736C41.9234 9.66445 41.5421 9.939 41.3083 10.3796C41.1835 10.6252 41.0822 10.8821 41.0056 11.1468C40.8956 11.5049 41.0138 11.7199 41.3817 11.7748C41.7553 11.8306 42.1378 11.8256 42.516 11.8517C42.5522 11.8577 42.5894 11.8504 42.6207 11.8311C42.652 11.8119 42.6753 11.7819 42.6864 11.7468C43.0115 11.0586 43.3414 10.3727 43.6694 9.68584C43.6851 9.65305 43.6963 9.61811 43.7211 9.5547Z" fill="white"/>
<path id="Vector_4" d="M13.2866 11.178C13.3683 8.93179 14.2113 7.21951 15.9151 5.95346C16.8207 5.2806 17.843 4.89061 18.952 4.72707C19.987 4.57442 21.0133 4.62126 22.0065 4.97086C23.6306 5.54257 24.5633 6.6922 24.7834 8.40796C24.8721 9.09943 24.7701 9.78044 24.5966 10.4483C24.1508 12.1636 23.1538 13.4651 21.6353 14.3675C20.8879 14.8163 20.0622 15.1187 19.2024 15.2583C18.0639 15.4415 16.9448 15.384 15.8663 14.9388C14.5573 14.3984 13.7198 13.4457 13.4098 12.0523C13.3366 11.7235 13.3146 11.3834 13.2866 11.178ZM19.3316 8.32445C19.2398 8.32611 19.1481 8.33255 19.057 8.34376C18.258 8.48135 17.7541 8.96952 17.4873 9.7136C17.3385 10.1287 17.3374 10.5547 17.5336 10.9616C17.8357 11.5881 18.4725 11.7695 19.1316 11.6454C19.585 11.5601 19.9344 11.3031 20.2273 10.9618C20.5945 10.534 20.7613 10.032 20.7003 9.47219C20.6317 8.84159 20.1189 8.29945 19.3316 8.32445Z" fill="white"/>
<path id="Vector_5" d="M59.4621 3.70397C59.4589 3.72778 59.4536 3.75126 59.4464 3.77414C59.1495 4.43968 58.8577 5.10761 58.5519 5.76903C58.411 6.07362 58.1922 6.30809 57.8393 6.36118C57.6821 6.3835 57.5235 6.39442 57.3647 6.39386C56.5955 6.39712 55.8263 6.39602 55.057 6.39521C54.7134 6.39485 54.4509 6.52898 54.2958 6.8471C54.185 7.07417 54.2226 7.24796 54.4299 7.39547C54.5331 7.46674 54.6423 7.52887 54.7562 7.58116C55.3756 7.87531 56.0021 8.15499 56.6142 8.46342C56.8297 8.57391 57.0255 8.71952 57.1935 8.89431C57.5231 9.23661 57.5548 9.66591 57.446 10.1067C57.16 11.265 56.7118 12.3516 55.9897 13.3102C55.3822 14.1167 54.5639 14.5805 53.5749 14.7219C53.0989 14.7862 52.6192 14.8189 52.1389 14.8197C50.7427 14.8321 49.3464 14.8269 47.9501 14.8205C47.7709 14.8206 47.5927 14.7929 47.4218 14.7384C47.1315 14.6425 47.0169 14.4126 47.1122 14.1211C47.2057 13.8351 47.3251 13.5573 47.4407 13.279C47.6479 12.7802 47.8629 12.2847 48.0692 11.7855C48.0801 11.7462 48.1048 11.7122 48.1388 11.6897C48.1727 11.6673 48.2136 11.658 48.2539 11.6635C49.5248 11.6719 50.7956 11.6765 52.0665 11.6774C52.2835 11.6786 52.5002 11.6607 52.7141 11.624C53.0843 11.558 53.2235 11.2965 53.2039 10.9202C53.1941 10.7334 53.057 10.6365 52.901 10.5689C52.5749 10.4277 52.2472 10.2901 51.9204 10.1506C51.5513 9.99296 51.1781 9.84417 50.8147 9.67442C50.3746 9.46885 50.0622 9.14617 49.9846 8.64433C49.9454 8.35664 49.967 8.06388 50.048 7.78513C50.3286 6.73822 50.7463 5.75635 51.442 4.91392C52.0431 4.18596 52.8204 3.78888 53.7628 3.72862C54.0294 3.71157 54.2972 3.70538 54.5644 3.70502C56.1447 3.70291 57.7249 3.70256 59.3051 3.70398L59.4621 3.70397Z" fill="white"/>
<path id="Vector_6" d="M69.4482 3.70366C69.3468 3.93281 69.2568 4.13948 69.1643 4.34501C68.9528 4.81477 68.7448 5.28623 68.5263 5.75271C68.341 6.1484 68.0423 6.38679 67.5867 6.38587C67.4948 6.38568 67.4029 6.39447 67.311 6.39456C66.5502 6.39535 65.7894 6.39311 65.0285 6.3959C64.614 6.39743 64.3408 6.59381 64.2246 6.95025C64.1771 7.09601 64.203 7.22172 64.3137 7.3154C64.4205 7.40845 64.5386 7.4877 64.6651 7.55131C65.3053 7.85992 65.9529 8.1533 66.5904 8.46717C66.7736 8.55897 66.9427 8.67667 67.0926 8.81666C67.4691 9.16621 67.5329 9.61614 67.4183 10.0908C67.1412 11.2383 66.6923 12.312 65.9899 13.2672C65.381 14.0954 64.5538 14.5764 63.5455 14.7208C63.0612 14.786 62.5732 14.8189 62.0845 14.8193C60.6967 14.8319 59.3088 14.8256 57.9209 14.8212C57.7622 14.8222 57.6042 14.802 57.4509 14.761C57.1072 14.6641 56.9753 14.4251 57.0923 14.0878C57.2157 13.7321 57.3667 13.3858 57.5104 13.0375C57.6813 12.6234 57.8607 12.2128 58.0288 11.7977C58.0692 11.6979 58.1174 11.662 58.2284 11.6628C59.4951 11.6721 60.7617 11.6768 62.0284 11.6771C62.2454 11.6771 62.462 11.6596 62.6762 11.6248C63.1006 11.5554 63.2031 11.2027 63.1676 10.9138C63.1465 10.822 63.0989 10.7386 63.0307 10.6739C62.9689 10.6175 62.8965 10.5741 62.8177 10.5461C62.2257 10.2933 61.6294 10.0501 61.0406 9.7899C60.8166 9.69824 60.6047 9.57912 60.4099 9.43526C59.9926 9.107 59.8567 8.64523 59.9506 8.13966C60.1795 6.90658 60.6678 5.78293 61.4859 4.82602C61.9859 4.22604 62.6977 3.84328 63.4723 3.75779C63.7459 3.72468 64.0212 3.70741 64.2968 3.70607C65.969 3.7014 67.6412 3.70369 69.3134 3.70366C69.3507 3.70366 69.3881 3.70366 69.4482 3.70366Z" fill="white"/>
<path id="Vector_7" d="M17.7166 0.718305C17.808 0.652623 27.1103 0.622433 28.2892 0.66898C28.2766 0.705809 28.2677 0.740025 28.2537 0.772004C28.0924 1.14019 27.9281 1.50709 27.7703 1.87674C27.7658 1.89349 27.758 1.90919 27.7474 1.92292C27.7369 1.93665 27.7237 1.94813 27.7086 1.95672C27.6936 1.9653 27.677 1.97081 27.6599 1.97292C27.6427 1.97504 27.6253 1.97371 27.6087 1.96903C26.5813 1.83696 25.5536 1.70665 24.5258 1.5781C23.4939 1.44828 22.4619 1.31897 21.4299 1.19017C20.4601 1.06838 19.4904 0.946261 18.5207 0.823822C18.2928 0.795141 18.0648 0.767338 17.8369 0.738669C17.8047 0.73463 17.773 0.727947 17.7166 0.718305Z" fill="white"/>
<path id="Vector_8" d="M18.9746 2.8081C19.0209 2.79255 19.0687 2.78223 19.1173 2.77734C21.4579 2.7997 23.7984 2.82301 26.139 2.84727C26.5358 2.85114 26.9327 2.84782 27.3448 2.84782C27.3267 2.89743 27.316 2.93231 27.3015 2.96547C27.1416 3.32975 26.9786 3.69266 26.8229 4.05868C26.7871 4.14268 26.7456 4.17097 26.6539 4.15522C24.814 3.83917 22.9738 3.5247 21.1333 3.2118C20.4172 3.08972 19.7009 2.96823 18.9846 2.84732L18.9746 2.8081Z" fill="white"/>
<path id="Vector_9" d="M72.9993 5.09962C72.9737 5.97273 72.2748 6.65571 71.4242 6.63877C70.5809 6.62198 69.8673 5.88423 69.8974 5.06043C69.9293 4.18783 70.6331 3.50683 71.4792 3.52986C72.3236 3.55285 73.0234 4.27557 72.9993 5.09962ZM71.4394 6.4599C72.1734 6.47941 72.8041 5.86395 72.823 5.10969C72.8267 4.83887 72.7504 4.57301 72.6036 4.34572C72.4569 4.11844 72.2462 3.93995 71.9984 3.83281C71.7505 3.72567 71.4766 3.6947 71.2112 3.74382C70.9458 3.79293 70.7009 3.91993 70.5074 4.10874C70.3139 4.29756 70.1806 4.53971 70.1242 4.80459C70.0679 5.06946 70.091 5.34516 70.1908 5.59682C70.2906 5.84848 70.4624 6.0648 70.6847 6.21843C70.9069 6.37206 71.1696 6.45609 71.4394 6.4599Z" fill="white"/>
<path id="Vector_10" d="M71.7719 5.06764C71.9483 5.12634 71.9706 5.26607 71.9901 5.4096C72.0125 5.5741 72.0394 5.73799 72.0643 5.90223C71.8635 5.94591 71.8497 5.9403 71.8118 5.752C71.7863 5.62538 71.7699 5.49685 71.7519 5.36881C71.7338 5.23981 71.6519 5.18298 71.5323 5.16718C71.1267 5.11357 71.1266 5.11375 71.1266 5.51831C71.1266 5.64318 71.1266 5.76806 71.1266 5.91031C71.0696 5.91481 71.0122 5.91374 70.9553 5.90713C70.9401 5.90196 70.9263 5.89307 70.9153 5.88124C70.9043 5.86941 70.8964 5.85503 70.8923 5.83937C70.8886 5.31228 70.8895 4.78515 70.8895 4.2207C71.1904 4.24005 71.481 4.24452 71.7671 4.28284C71.9201 4.30335 72.0239 4.42494 72.0424 4.58738C72.0616 4.7548 72.0187 4.90363 71.8658 5.0014C71.8388 5.01868 71.8133 5.03832 71.7719 5.06764ZM71.1249 4.94427C71.285 4.94427 71.4307 4.94993 71.5758 4.94263C71.6051 4.94324 71.6343 4.93786 71.6615 4.92683C71.6887 4.9158 71.7134 4.89934 71.7341 4.87845C71.7548 4.85756 71.7711 4.83267 71.782 4.80529C71.7928 4.77791 71.798 4.7486 71.7972 4.71915C71.8063 4.56235 71.7482 4.46707 71.6 4.45143C71.4418 4.44201 71.2832 4.44079 71.1249 4.44778L71.1249 4.94427Z" fill="white"/>
</g>
<defs>
<clipPath id="clip0_12717_106">
<rect width="73" height="14.709" fill="white" transform="translate(0 0.646484)"/>
</clipPath>
</defs>
</svg>
