<svg xmlns="http://www.w3.org/2000/svg" width="30" height="30" viewBox="0 0 30 30" fill="none">
  <path d="M15 5.25C17.5859 5.25 20.0658 6.27723 21.8943 8.10571C23.7228 9.93419 24.75 12.4141 24.75 15C24.75 17.5859 23.7228 20.0658 21.8943 21.8943C20.0658 23.7228 17.5859 24.75 15 24.75C12.4141 24.75 9.93419 23.7228 8.10571 21.8943C6.27723 20.0658 5.25 17.5859 5.25 15C5.25 12.4141 6.27723 9.93419 8.10571 8.10571C9.93419 6.27723 12.4141 5.25 15 5.25ZM15 27C18.1826 27 21.2348 25.7357 23.4853 23.4853C25.7357 21.2348 27 18.1826 27 15C27 11.8174 25.7357 8.76516 23.4853 6.51472C21.2348 4.26428 18.1826 3 15 3C11.8174 3 8.76516 4.26428 6.51472 6.51472C4.26428 8.76516 3 11.8174 3 15C3 18.1826 4.26428 21.2348 6.51472 23.4853C8.76516 25.7357 11.8174 27 15 27ZM15 9C14.3766 9 13.875 9.50156 13.875 10.125V15.375C13.875 15.9984 14.3766 16.5 15 16.5C15.6234 16.5 16.125 15.9984 16.125 15.375V10.125C16.125 9.50156 15.6234 9 15 9ZM16.5 19.5C16.5 19.1022 16.342 18.7206 16.0607 18.4393C15.7794 18.158 15.3978 18 15 18C14.6022 18 14.2206 18.158 13.9393 18.4393C13.658 18.7206 13.5 19.1022 13.5 19.5C13.5 19.8978 13.658 20.2794 13.9393 20.5607C14.2206 20.842 14.6022 21 15 21C15.3978 21 15.7794 20.842 16.0607 20.5607C16.342 20.2794 16.5 19.8978 16.5 19.5Z" fill="#404040"/>
</svg>