<svg xmlns="http://www.w3.org/2000/svg" width="30" height="30" viewBox="0 0 30 30" fill="none">
<path d="M15 5.25C17.5859 5.25 20.0658 6.27723 21.8943 8.10571C23.7228 9.93419 24.75 12.4141 24.75 15C24.75 17.5859 23.7228 20.0658 21.8943 21.8943C20.0658 23.7228 17.5859 24.75 15 24.75C12.4141 24.75 9.93419 23.7228 8.10571 21.8943C6.27723 20.0658 5.25 17.5859 5.25 15C5.25 12.4141 6.27723 9.93419 8.10571 8.10571C9.93419 6.27723 12.4141 5.25 15 5.25ZM15 27C18.1826 27 21.2348 25.7357 23.4853 23.4853C25.7357 21.2348 27 18.1826 27 15C27 11.8174 25.7357 8.76516 23.4853 6.51472C21.2348 4.26428 18.1826 3 15 3C11.8174 3 8.76516 4.26428 6.51472 6.51472C4.26428 8.76516 3 11.8174 3 15C3 18.1826 4.26428 21.2348 6.51472 23.4853C8.76516 25.7357 11.8174 27 15 27ZM13.125 18.75C12.5016 18.75 12 19.2516 12 19.875C12 20.4984 12.5016 21 13.125 21H16.875C17.4984 21 18 20.4984 18 19.875C18 19.2516 17.4984 18.75 16.875 18.75H16.5V14.625C16.5 14.0016 15.9984 13.5 15.375 13.5H13.125C12.5016 13.5 12 14.0016 12 14.625C12 15.2484 12.5016 15.75 13.125 15.75H14.25V18.75H13.125ZM15 12C15.3978 12 15.7794 11.842 16.0607 11.5607C16.342 11.2794 16.5 10.8978 16.5 10.5C16.5 10.1022 16.342 9.72064 16.0607 9.43934C15.7794 9.15804 15.3978 9 15 9C14.6022 9 14.2206 9.15804 13.9393 9.43934C13.658 9.72064 13.5 10.1022 13.5 10.5C13.5 10.8978 13.658 11.2794 13.9393 11.5607C14.2206 11.842 14.6022 12 15 12Z" fill="#202020"/>
</svg>