<svg width="24" height="25" viewBox="0 0 24 25" fill="none" xmlns="http://www.w3.org/2000/svg">
<g id="Instagram_official_page" clip-path="url(#clip0_12718_3003)">
<path id="Vector" d="M7.0301 0.341738C5.7533 0.401978 4.88138 0.605738 4.11914 0.905258C3.33026 1.2127 2.66162 1.62526 1.99634 2.29294C1.33106 2.96062 0.921379 3.62974 0.616099 4.41982C0.320659 5.18374 0.120499 6.05638 0.0640995 7.3339C0.00769946 8.61142 -0.00478054 9.02206 0.00145946 12.2808C0.00769946 15.5395 0.0220995 15.948 0.0840195 17.2281C0.144979 18.5047 0.348019 19.3764 0.647539 20.1389C0.955459 20.9277 1.36754 21.5961 2.03546 22.2617C2.70338 22.9272 3.37202 23.3359 4.16402 23.6417C4.92722 23.9366 5.8001 24.1377 7.07738 24.1937C8.35466 24.2496 8.76578 24.2625 12.0235 24.2563C15.2813 24.2501 15.6915 24.2357 16.9714 24.1749C18.2513 24.1142 19.1184 23.9097 19.8811 23.6117C20.67 23.303 21.3389 22.8917 22.0039 22.2235C22.669 21.5553 23.0784 20.8857 23.3835 20.0952C23.6791 19.332 23.88 18.4591 23.9355 17.1828C23.9914 15.9019 24.0046 15.4929 23.9983 12.2347C23.9921 8.97646 23.9775 8.56798 23.9167 7.2883C23.856 6.00862 23.6527 5.13958 23.3535 4.37662C23.0451 3.58774 22.6335 2.91982 21.9658 2.25382C21.2981 1.58782 20.628 1.17862 19.8377 0.874298C19.074 0.578858 18.2016 0.377498 16.9243 0.322298C15.6471 0.267098 15.2359 0.252938 11.977 0.259178C8.71802 0.265418 8.31002 0.279338 7.0301 0.341738ZM7.17026 22.0349C6.00026 21.984 5.36498 21.7896 4.94162 21.6269C4.38098 21.4109 3.98162 21.1497 3.5597 20.7319C3.13778 20.3141 2.87858 19.9133 2.6597 19.3538C2.4953 18.9305 2.2973 18.2959 2.24258 17.1259C2.18306 15.8613 2.17058 15.4817 2.16362 12.2779C2.15666 9.07414 2.1689 8.69494 2.22434 7.4299C2.27426 6.26086 2.46986 5.62486 2.63234 5.20174C2.84834 4.64038 3.1085 4.24174 3.5273 3.82006C3.9461 3.39838 4.3457 3.1387 4.90562 2.91982C5.3285 2.7547 5.96306 2.55838 7.13258 2.5027C8.3981 2.4427 8.7773 2.4307 11.9806 2.42374C15.1839 2.41678 15.564 2.42878 16.83 2.48446C17.9991 2.53534 18.6353 2.72902 19.0579 2.89246C19.6188 3.10846 20.0179 3.3679 20.4396 3.78742C20.8613 4.20694 21.1212 4.6051 21.3401 5.16622C21.5055 5.5879 21.7018 6.22222 21.757 7.39246C21.8172 8.65798 21.8309 9.03742 21.8367 12.2405C21.8424 15.4435 21.8311 15.8239 21.7757 17.0885C21.7246 18.2585 21.5307 18.894 21.3677 19.3178C21.1517 19.8782 20.8913 20.2778 20.4723 20.6993C20.0532 21.1207 19.6541 21.3804 19.0939 21.5993C18.6715 21.7641 18.0363 21.9609 16.8677 22.0166C15.6022 22.0761 15.223 22.0886 12.0185 22.0956C8.81402 22.1025 8.43602 22.0896 7.1705 22.0349M16.9529 5.84422C16.9534 6.12904 17.0383 6.40733 17.1969 6.64388C17.3556 6.88044 17.5808 7.06463 17.8442 7.17316C18.1075 7.2817 18.3971 7.30971 18.6764 7.25364C18.9556 7.19757 19.212 7.05995 19.413 6.85818C19.614 6.65641 19.7507 6.39955 19.8058 6.1201C19.8608 5.84064 19.8317 5.55114 19.7222 5.2882C19.6127 5.02527 19.4277 4.80071 19.1906 4.64294C18.9534 4.48516 18.6748 4.40125 18.39 4.40182C18.0082 4.40258 17.6423 4.55496 17.3728 4.82545C17.1033 5.09594 16.9523 5.46239 16.9529 5.84422ZM5.8385 12.2697C5.84522 15.6729 8.60906 18.4255 12.0115 18.419C15.414 18.4125 18.1685 15.6489 18.162 12.2457C18.1555 8.84254 15.391 6.08926 11.988 6.09598C8.58506 6.1027 5.83202 8.86702 5.8385 12.2697ZM7.99994 12.2654C7.99837 11.4743 8.23144 10.7004 8.66968 10.0418C9.10791 9.38309 9.73162 8.86915 10.4619 8.56495C11.1923 8.26075 11.9964 8.17994 12.7726 8.33275C13.5489 8.48556 14.2624 8.86512 14.8229 9.42343C15.3834 9.98174 15.7658 10.6937 15.9217 11.4694C16.0776 12.245 15.9999 13.0494 15.6986 13.7809C15.3973 14.5125 14.8859 15.1382 14.2289 15.579C13.572 16.0199 12.7991 16.256 12.0079 16.2576C11.4826 16.2587 10.9622 16.1563 10.4765 15.9563C9.99076 15.7562 9.54918 15.4624 9.17699 15.0917C8.8048 14.721 8.50929 14.2806 8.30733 13.7957C8.10537 13.3107 8.00091 12.7907 7.99994 12.2654Z" fill="white"/>
</g>
<defs>
<clipPath id="clip0_12718_3003">
<rect width="24" height="24" fill="white" transform="translate(0 0.257812)"/>
</clipPath>
</defs>
</svg>
