<svg width="21" height="21" viewBox="0 0 21 21" fill="none" xmlns="http://www.w3.org/2000/svg">
<path id="Primary" d="M14.4375 0C13.9084 0 13.4285 0.319922 13.2234 0.812109C13.0184 1.3043 13.1332 1.86621 13.5064 2.24355L15.2045 3.9375L8.26055 10.8855C7.74785 11.3982 7.74785 12.2309 8.26055 12.7436C8.77324 13.2563 9.60586 13.2563 10.1186 12.7436L17.0625 5.79551L18.7605 7.49355C19.1379 7.8709 19.6998 7.98164 20.192 7.77656C20.6842 7.57148 21.0041 7.0957 21.0041 6.5625V1.3125C21.0041 0.586523 20.4176 0 19.6916 0L14.4375 0ZM3.28125 1.3125C1.46836 1.3125 0 2.78086 0 4.59375V17.7188C0 19.5316 1.46836 21 3.28125 21H16.4062C18.2191 21 19.6875 19.5316 19.6875 17.7188V13.125C19.6875 12.399 19.101 11.8125 18.375 11.8125C17.649 11.8125 17.0625 12.399 17.0625 13.125V17.7188C17.0625 18.0797 16.7672 18.375 16.4062 18.375H3.28125C2.92031 18.375 2.625 18.0797 2.625 17.7188V4.59375C2.625 4.23281 2.92031 3.9375 3.28125 3.9375H7.875C8.60098 3.9375 9.1875 3.35098 9.1875 2.625C9.1875 1.89902 8.60098 1.3125 7.875 1.3125H3.28125Z" fill="#1E2859"/>
</svg>
