<svg width="24" height="25" viewBox="0 0 24 25" fill="none" xmlns="http://www.w3.org/2000/svg">
<g id="XMLID_801_">
<path id="XMLID_802_" d="M5.5914 7.96875H0.776889C0.563213 7.96875 0.390076 8.14247 0.390076 8.3567V23.8691C0.390076 24.0834 0.563213 24.257 0.776889 24.257H5.5914C5.80508 24.257 5.97822 24.0834 5.97822 23.8691V8.3567C5.97822 8.14247 5.80508 7.96875 5.5914 7.96875Z" fill="white"/>
<path id="XMLID_803_" d="M3.18583 0.257812C1.43403 0.257812 0.0088501 1.68562 0.0088501 3.44062C0.0088501 5.1964 1.43403 6.62475 3.18583 6.62475C4.93624 6.62475 6.36025 5.19632 6.36025 3.44062C6.36033 1.68562 4.93624 0.257812 3.18583 0.257812Z" fill="white"/>
<path id="XMLID_804_" d="M17.8373 7.58398C15.9036 7.58398 14.4742 8.41769 13.6071 9.36498V8.35748C13.6071 8.14325 13.434 7.96953 13.2203 7.96953H8.60959C8.39592 7.96953 8.22278 8.14325 8.22278 8.35748V23.8698C8.22278 24.0841 8.39592 24.2578 8.60959 24.2578H13.4136C13.6273 24.2578 13.8004 24.0841 13.8004 23.8698V16.1948C13.8004 13.6085 14.5008 12.6009 16.2984 12.6009C18.2562 12.6009 18.4118 14.2162 18.4118 16.3279V23.8699C18.4118 24.0842 18.5849 24.2579 18.7986 24.2579H23.6043C23.818 24.2579 23.9912 24.0842 23.9912 23.8699V15.3611C23.9912 11.5154 23.26 7.58398 17.8373 7.58398Z" fill="white"/>
</g>
</svg>
