<svg width="234" height="112" viewBox="0 0 234 112" fill="none" xmlns="http://www.w3.org/2000/svg">
<path d="M80.5407 12.5136L77.7639 28.4801C77.6983 28.8654 77.9953 29.2179 78.3863 29.2179H96.8141C97.2058 29.2179 97.5035 29.5719 97.4352 29.9572L91.3652 64.409C91.2983 64.7958 91.5938 65.1483 91.9862 65.1483H110.428C110.733 65.1483 110.997 64.9289 111.049 64.6263L117.116 29.7399C117.168 29.4373 117.429 29.2179 117.737 29.2179H135.387C135.693 29.2179 135.957 28.9986 136.009 28.6959L138.79 12.7294C138.855 12.3441 138.561 11.9916 138.169 11.9916H81.1624C80.8555 11.9916 80.5934 12.2117 80.5407 12.5136ZM56.3406 12.5193L47.3108 64.4112C47.2438 64.7979 47.5394 65.149 47.9318 65.149H87.8541C88.1604 65.149 88.4225 64.9304 88.4752 64.6284L91.3374 48.3408C91.4044 47.954 91.1088 47.6015 90.7164 47.6015H72.3769C71.9873 47.6015 71.6903 47.249 71.7559 46.8637L77.7012 12.7366C77.7667 12.3513 77.4712 11.9973 77.0787 11.9973H56.9609C56.6547 11.9966 56.3933 12.2181 56.3406 12.5193ZM186.581 38.2648C185.158 52.6808 172.141 65.1483 159.421 65.1483L114.666 65.1561C114.276 65.1561 113.981 64.8079 114.043 64.4247L116.696 48.1228C116.744 47.818 117.007 47.5944 117.318 47.5944L154.418 47.593C154.809 47.593 155.106 47.9455 155.039 48.3294L154.221 53.0839C154.122 53.6665 154.808 54.0546 155.255 53.6679L172.467 38.7825C172.725 38.5589 172.759 38.1722 172.543 37.908L160.504 23.1052C160.162 22.6843 159.487 22.8617 159.395 23.393L158.468 28.703C158.415 29.0043 158.154 29.2236 157.847 29.2236H139.468C139.077 29.2236 138.78 28.8711 138.847 28.4858L141.624 12.5129C141.676 12.2103 141.938 11.9909 142.244 11.9909H166.918C176.626 11.9916 187.983 24.0411 186.581 38.2648Z" fill="#0081C6"/>
<path d="M221.533 99.8866C221.679 99.8866 221.776 99.789 221.776 99.6416V97.2252C221.776 97.0792 221.679 96.9816 221.533 96.9816H220.947C220.166 96.9816 219.873 96.6882 219.873 95.8094V90.5862C219.873 90.4886 219.921 90.4402 220.019 90.4402H221.533C221.679 90.4402 221.776 90.3426 221.776 90.1952V88.1698C221.776 88.0238 221.679 87.9248 221.533 87.9248H220.019C219.921 87.9248 219.873 87.8763 219.873 87.7788V84.606C219.873 84.46 219.775 84.361 219.628 84.361H216.723C216.577 84.361 216.48 84.46 216.48 84.606V87.7788C216.48 87.8763 216.431 87.9248 216.332 87.9248H215.601C215.454 87.9248 215.356 88.0238 215.356 88.1698V90.1952C215.356 90.3426 215.454 90.4402 215.601 90.4402H216.332C216.431 90.4402 216.48 90.4886 216.48 90.5862V95.9554C216.48 98.6652 217.505 99.8852 220.238 99.8852H221.533V99.8866ZM209.468 100.009C211.494 100.009 213.081 99.0818 213.935 97.7878C214.008 97.6653 214.008 97.5442 213.885 97.446L211.762 96.0558C211.616 95.9568 211.494 95.9824 211.397 96.1042C210.884 96.8121 210.371 97.129 209.517 97.129C208.614 97.129 207.955 96.7145 207.686 95.8599C207.515 95.3721 207.467 94.8102 207.467 93.8345C207.467 92.8588 207.515 92.2969 207.686 91.809C207.955 90.9544 208.614 90.5399 209.517 90.5399C210.371 90.5399 210.884 90.8568 211.397 91.5647C211.494 91.6872 211.616 91.7122 211.762 91.6132L213.885 90.223C214.008 90.1254 214.008 90.0036 213.935 89.8811C213.081 88.5885 211.494 87.6598 209.468 87.6598C206.978 87.6598 205.075 88.8079 204.368 91.005C204.123 91.7129 204.001 92.591 204.001 93.8352C204.001 95.0794 204.123 95.9582 204.368 96.6668C205.076 98.8618 206.978 100.009 209.468 100.009ZM201.666 99.7406C201.812 99.7406 201.91 99.6416 201.91 99.4956V88.1705C201.91 88.0245 201.812 87.9255 201.666 87.9255H198.737C198.591 87.9255 198.492 88.0245 198.492 88.1705V99.4956C198.492 99.6416 198.591 99.7406 198.737 99.7406H201.666ZM201.666 86.0482C201.812 86.0482 201.91 85.9492 201.91 85.8032V83.3867C201.91 83.2407 201.812 83.1432 201.666 83.1432H198.737C198.591 83.1432 198.492 83.2407 198.492 83.3867V85.8032C198.492 85.9492 198.591 86.0482 198.737 86.0482H201.666ZM191.48 99.7406C191.627 99.7406 191.725 99.6416 191.725 99.4956V93.2718C191.725 91.6858 192.287 90.7585 193.556 90.7094C194.141 90.6845 194.703 90.8803 195.264 91.2464C195.41 91.3197 195.508 91.3197 195.605 91.198L196.972 88.7082C197.045 88.5622 197.021 88.4646 196.899 88.3677C196.386 87.9269 195.605 87.6591 194.824 87.6591C193.384 87.6591 192.31 88.221 191.749 89.1732H191.724V88.1726C191.724 88.0266 191.627 87.9276 191.479 87.9276H188.551C188.404 87.9276 188.306 88.0266 188.306 88.1726V99.4978C188.306 99.6437 188.404 99.7427 188.551 99.7427H191.48V99.7406ZM185.936 99.8866C186.082 99.8866 186.18 99.789 186.18 99.6416V97.2252C186.18 97.0792 186.082 96.9816 185.936 96.9816H185.349C184.57 96.9816 184.276 96.6882 184.276 95.8094V90.5862C184.276 90.4886 184.325 90.4402 184.422 90.4402H185.936C186.082 90.4402 186.18 90.3426 186.18 90.1952V88.1698C186.18 88.0238 186.082 87.9248 185.936 87.9248H184.422C184.325 87.9248 184.276 87.8763 184.276 87.7788V84.606C184.276 84.46 184.179 84.361 184.031 84.361H181.127C180.981 84.361 180.883 84.46 180.883 84.606V87.7788C180.883 87.8763 180.833 87.9248 180.736 87.9248H180.004C179.857 87.9248 179.759 88.0238 179.759 88.1698V90.1952C179.759 90.3426 179.857 90.4402 180.004 90.4402H180.736C180.833 90.4402 180.883 90.4886 180.883 90.5862V95.9554C180.883 98.6652 181.908 99.8852 184.641 99.8852H185.936V99.8866ZM173.288 100.009C176.656 100.009 178.536 98.3725 178.559 95.9568C178.559 93.9798 177.413 92.638 174.63 92.3702L173.336 92.2228C171.994 92.1017 171.701 91.7834 171.701 91.2471C171.701 90.6617 172.189 90.2714 173.19 90.2714C174.411 90.2714 175.582 90.7108 176.388 91.2236C176.51 91.2962 176.632 91.2962 176.73 91.1737L178.096 89.4901C178.194 89.3677 178.169 89.2217 178.072 89.1248C176.973 88.2951 175.29 87.6598 173.288 87.6598C170.213 87.6598 168.431 89.1248 168.431 91.4437C168.431 93.5667 169.798 94.8109 172.286 95.0559L173.605 95.2019C174.973 95.3244 175.29 95.6662 175.29 96.2281C175.29 96.8869 174.703 97.3498 173.459 97.3498C172.238 97.3498 170.896 96.862 169.846 96.0572C169.724 95.9582 169.601 95.9582 169.505 96.0572L167.919 97.8384C167.821 97.9359 167.821 98.0834 167.919 98.1802C169.041 99.1538 170.823 100.009 173.288 100.009ZM165.854 99.7406C166.001 99.7406 166.099 99.6416 166.099 99.4956V88.1705C166.099 88.0245 166.001 87.9255 165.854 87.9255H162.926C162.779 87.9255 162.681 88.0245 162.681 88.1705V99.4956C162.681 99.6416 162.779 99.7406 162.926 99.7406H165.854ZM165.854 86.0482C166.001 86.0482 166.099 85.9492 166.099 85.8032V83.3867C166.099 83.2407 166.001 83.1432 165.854 83.1432H162.926C162.779 83.1432 162.681 83.2407 162.681 83.3867V85.8032C162.681 85.9492 162.779 86.0482 162.926 86.0482H165.854ZM151.273 96.3955V86.4869C151.273 86.3879 151.322 86.3394 151.419 86.3394H153.299C154.959 86.3394 155.96 86.8273 156.374 88.1705C156.545 88.6583 156.643 89.2936 156.643 91.4415C156.643 93.5881 156.545 94.2233 156.374 94.7112C155.96 96.0543 154.959 96.5422 153.299 96.5422H151.419C151.323 96.5429 151.273 96.4945 151.273 96.3955ZM147.685 99.4956C147.685 99.6416 147.784 99.7406 147.93 99.7406H154.106C157.01 99.7406 159.035 98.495 159.84 96.0066C160.134 95.0779 160.28 94.1507 160.28 91.4422C160.28 88.7324 160.134 87.8051 159.84 86.8779C159.035 84.3881 157.01 83.1439 154.106 83.1439H147.93C147.784 83.1439 147.685 83.2414 147.685 83.3874V99.4956ZM139.583 99.8866C139.729 99.8866 139.828 99.789 139.828 99.6416V97.2252C139.828 97.0792 139.729 96.9816 139.583 96.9816H138.997C138.216 96.9816 137.923 96.6882 137.923 95.8094V90.5862C137.923 90.4886 137.971 90.4402 138.07 90.4402H139.583C139.729 90.4402 139.828 90.3426 139.828 90.1952V88.1698C139.828 88.0238 139.729 87.9248 139.583 87.9248H138.07C137.971 87.9248 137.923 87.8763 137.923 87.7788V84.606C137.923 84.46 137.825 84.361 137.679 84.361H134.775C134.627 84.361 134.53 84.46 134.53 84.606V87.7788C134.53 87.8763 134.481 87.9248 134.384 87.9248H133.651C133.505 87.9248 133.406 88.0238 133.406 88.1698V90.1952C133.406 90.3426 133.505 90.4402 133.651 90.4402H134.384C134.481 90.4402 134.53 90.4886 134.53 90.5862V95.9554C134.53 98.6652 135.555 99.8852 138.289 99.8852H139.583V99.8866ZM131.407 99.7406C131.553 99.7406 131.652 99.6416 131.652 99.4956V88.1705C131.652 88.0245 131.553 87.9255 131.407 87.9255H128.478C128.332 87.9255 128.234 88.0245 128.234 88.1705V99.4956C128.234 99.6416 128.332 99.7406 128.478 99.7406H131.407ZM131.407 86.0482C131.553 86.0482 131.652 85.9492 131.652 85.8032V83.3867C131.652 83.2407 131.553 83.1432 131.407 83.1432H128.478C128.332 83.1432 128.234 83.2407 128.234 83.3867V85.8032C128.234 85.9492 128.332 86.0482 128.478 86.0482H131.407ZM120.991 100.009C124.358 100.009 126.238 98.3725 126.263 95.9568C126.263 93.9798 125.115 92.638 122.333 92.3702L121.04 92.2228C119.697 92.1017 119.404 91.7834 119.404 91.2471C119.404 90.6617 119.893 90.2714 120.893 90.2714C122.114 90.2714 123.285 90.7108 124.091 91.2236C124.213 91.2962 124.336 91.2962 124.432 91.1737L125.799 89.4901C125.897 89.3677 125.873 89.2217 125.776 89.1248C124.676 88.2951 122.992 87.6598 120.992 87.6598C117.917 87.6598 116.134 89.1248 116.134 91.4437C116.134 93.5667 117.501 94.8109 119.991 95.0559L121.309 95.2019C122.676 95.3244 122.992 95.6662 122.992 96.2281C122.992 96.8869 122.407 97.3498 121.161 97.3498C119.942 97.3498 118.599 96.862 117.549 96.0572C117.427 95.9582 117.306 95.9582 117.207 96.0572L115.621 97.8384C115.524 97.9359 115.524 98.0834 115.621 98.1802C116.744 99.1538 118.525 100.009 120.991 100.009ZM113.58 99.7406C113.726 99.7406 113.825 99.6416 113.825 99.4956V92.0512C113.825 89.4652 112.409 87.6577 109.798 87.6577C108.284 87.6577 107.284 88.268 106.746 89.0009H106.723V88.1712C106.723 88.0252 106.625 87.9262 106.478 87.9262H103.55C103.402 87.9262 103.305 88.0252 103.305 88.1712V99.4963C103.305 99.6423 103.402 99.7413 103.55 99.7413H106.478C106.625 99.7413 106.723 99.6423 106.723 99.4963V92.7106C106.723 91.418 107.406 90.5641 108.577 90.5641C109.798 90.5641 110.408 91.418 110.408 92.7106V99.4963C110.408 99.6423 110.506 99.7413 110.652 99.7413L113.58 99.7406ZM95.3026 97.4452C94.1795 97.4452 93.5941 97.0307 93.5941 96.2011C93.5941 95.2738 94.2528 94.8579 95.6922 94.8579H97.3523C97.4499 94.8579 97.4997 94.9063 97.4997 95.0053V95.8101C97.499 96.909 96.7669 97.4452 95.3026 97.4452ZM100.501 99.7406C100.647 99.7406 100.746 99.6416 100.746 99.4956V91.9301C100.746 88.9759 99.3542 87.6577 95.4977 87.6577C93.5456 87.6577 92.1056 88.122 91.1043 88.8299C90.9818 88.9033 90.9583 89.0258 91.0309 89.1718L92.1291 91.1004C92.2025 91.2229 92.325 91.2464 92.4474 91.1488C93.0079 90.7329 93.8861 90.3925 95.0833 90.3925C96.9613 90.3925 97.4997 90.9038 97.4997 92.0027V92.4422C97.4997 92.5411 97.4499 92.5896 97.3523 92.5896H95.2528C92.325 92.5896 90.3479 93.7853 90.3479 96.3962C90.3479 98.9109 92.1775 100.009 94.2771 100.009C95.888 100.009 96.9129 99.4963 97.5232 98.7151H97.5481V99.4963C97.5481 99.6423 97.6457 99.7413 97.7917 99.7413L100.501 99.7406ZM83.9119 99.7406C84.0579 99.7406 84.1555 99.6416 84.1555 99.4956V93.2718C84.1555 91.6858 84.7174 90.7585 85.9865 90.7094C86.5719 90.6845 87.1331 90.8803 87.695 91.2464C87.841 91.3197 87.9386 91.3197 88.0369 91.198L89.4036 88.7082C89.4762 88.5622 89.452 88.4646 89.3302 88.3677C88.8174 87.9269 88.0376 87.6591 87.2556 87.6591C85.8156 87.6591 84.7423 88.221 84.1804 89.1732H84.1555V88.1726C84.1555 88.0266 84.0579 87.9276 83.9119 87.9276H80.9827C80.8367 87.9276 80.7377 88.0266 80.7377 88.1726V99.4978C80.7377 99.6437 80.8367 99.7427 80.9827 99.7427H83.9119V99.7406ZM76.0451 99.7406C76.1925 99.7406 76.2901 99.6416 76.2901 99.4956V86.4869C76.2901 86.3879 76.3385 86.3394 76.4361 86.3394H80.6344C80.7804 86.3394 80.878 86.2419 80.878 86.0959V83.386C80.878 83.24 80.7804 83.1425 80.6344 83.1425H68.357C68.211 83.1425 68.1134 83.24 68.1134 83.386V86.0959C68.1134 86.2419 68.211 86.3394 68.357 86.3394H72.5554C72.6529 86.3394 72.7014 86.3879 72.7014 86.4869V99.4956C72.7014 99.6416 72.7989 99.7406 72.9464 99.7406H76.0451ZM54.0556 92.5896C53.9566 92.5896 53.9082 92.5411 53.9082 92.4422C53.9082 92.0768 53.9566 91.8083 54.0307 91.5633C54.2992 90.7585 55.0313 90.2707 56.0077 90.2707C56.9834 90.2707 57.7162 90.7585 57.9847 91.5633C58.0581 91.8083 58.1072 92.0761 58.1072 92.4422C58.1072 92.5411 58.0588 92.5896 57.9612 92.5896H54.0556ZM56.1537 100.009C58.3266 100.009 60.0586 99.2278 61.1824 98.0321C61.28 97.9331 61.28 97.7871 61.1575 97.6902L59.5473 96.1761C59.4483 96.0551 59.3279 96.0786 59.2054 96.1761C58.5217 96.8114 57.6678 97.2259 56.4955 97.2259C55.2749 97.2259 54.3725 96.6889 54.0556 95.6648C53.9822 95.4689 53.9331 95.2489 53.9082 95.006C53.9082 94.907 53.9566 94.8586 54.0556 94.8586H61.2067C61.3762 94.8586 61.4752 94.761 61.4752 94.615C61.4752 92.6131 61.3277 91.7592 61.0842 90.9779C60.4005 88.9033 58.5944 87.6577 55.9835 87.6577C53.4688 87.6577 51.5893 88.8784 50.9063 91.0028C50.6613 91.7342 50.5153 92.5889 50.5153 93.833C50.5153 95.0537 50.6862 95.9076 50.9298 96.6398C51.6142 98.7635 53.4688 100.009 56.1537 100.009ZM48.2705 99.7406C48.4165 99.7406 48.5155 99.6416 48.5155 99.4956V92.0512C48.5155 89.4652 47.099 87.6577 44.4881 87.6577C42.974 87.6577 41.9748 88.268 41.4364 89.0009H41.4129V88.1712C41.4129 88.0252 41.3153 87.9262 41.1679 87.9262H38.2401C38.0926 87.9262 37.9951 88.0252 37.9951 88.1712V99.4963C37.9951 99.6423 38.0926 99.7413 38.2401 99.7413H41.1679C41.3153 99.7413 41.4129 99.6423 41.4129 99.4963V92.7106C41.4129 91.418 42.0958 90.5641 43.2674 90.5641C44.4881 90.5641 45.0984 91.418 45.0984 92.7106V99.4963C45.0984 99.6423 45.196 99.7413 45.342 99.7413L48.2705 99.7406ZM29.9915 97.4452C28.8698 97.4452 28.2844 97.0307 28.2844 96.2011C28.2844 95.2738 28.9432 94.8579 30.3825 94.8579H32.0426C32.1402 94.8579 32.19 94.9063 32.19 95.0053V95.8101C32.19 96.909 31.4572 97.4452 29.9915 97.4452ZM35.1912 99.7406C35.3372 99.7406 35.4348 99.6416 35.4348 99.4956V91.9301C35.4348 88.9759 34.0446 87.6577 30.1881 87.6577C28.2345 87.6577 26.7959 88.122 25.7946 88.8299C25.6721 88.9033 25.6486 89.0258 25.7212 89.1718L26.8194 91.1004C26.8928 91.2229 27.0153 91.2464 27.1364 91.1488C27.6983 90.7329 28.5764 90.3925 29.7722 90.3925C31.6516 90.3925 32.19 90.9038 32.19 92.0027V92.4422C32.19 92.5411 32.1402 92.5896 32.0426 92.5896H29.9431C27.0153 92.5896 25.0383 93.7853 25.0383 96.3962C25.0383 98.9109 26.8679 100.009 28.9674 100.009C30.5784 100.009 31.6032 99.4963 32.2135 98.7151H32.2385V99.4963C32.2385 99.6423 32.336 99.7413 32.482 99.7413L35.1912 99.7406ZM12.2246 99.4956C12.2246 99.6416 12.3222 99.7406 12.4696 99.7406H23.2813C23.4273 99.7406 23.5249 99.6416 23.5249 99.4956V96.7858C23.5249 96.6398 23.4273 96.5422 23.2813 96.5422H15.9586C15.861 96.5422 15.8126 96.4938 15.8126 96.3948V83.386C15.8126 83.24 15.715 83.1425 15.5676 83.1425H12.4689C12.3214 83.1425 12.2239 83.24 12.2239 83.386L12.2246 99.4956Z" fill="#0081C6"/>
</svg>
