<svg width="241" height="50" viewBox="0 0 241 50" fill="none" xmlns="http://www.w3.org/2000/svg">
<g clip-path="url(#clip0_12683_1128)">
<path d="M0 16.6582V19.7827H4.84123V33.3364H8.39035V19.7827H13.207V16.6582H0Z" fill="#7C878D"/>
<path d="M25.3251 33.3353L22.0742 27.4089H19.4926V33.3353H15.9663V16.6562H23.7119C27.1628 16.6562 29.2979 18.9307 29.2979 22.033C29.3588 23.1576 29.0272 24.2683 28.3605 25.1725C27.6939 26.0767 26.7343 26.7175 25.6479 26.9839L29.397 33.3353H25.3251ZM25.6733 22.0065C25.6711 21.6933 25.604 21.3841 25.4764 21.0985C25.3488 20.813 25.1634 20.5574 24.9322 20.3481C24.701 20.1388 24.4289 19.9804 24.1335 19.883C23.838 19.7856 23.5257 19.7513 23.2163 19.7824H19.4926V24.2835H23.2163C23.5298 24.3134 23.8459 24.2766 24.1443 24.1754C24.4427 24.0742 24.7166 23.911 24.9483 23.6963C25.18 23.4815 25.3643 23.2201 25.4892 22.929C25.6141 22.6379 25.6768 22.3236 25.6733 22.0065Z" fill="#7C878D"/>
<path d="M35.3292 16.6562H31.8037V33.3344H35.3292V16.6562Z" fill="#7C878D"/>
<path d="M49.4946 33.3353L41.6016 22.4563V33.3353H38.0762V16.6562H41.6999L49.3718 27.1332V16.6562H52.8963V33.3353H49.4946Z" fill="#7C878D"/>
<path d="M59.1704 16.6562H55.644V33.3344H59.1704V16.6562Z" fill="#7C878D"/>
<path d="M66.7581 33.3353V19.7816H61.916V16.6562H75.1239V19.7816H70.3072V33.3353H66.7581Z" fill="#7C878D"/>
<path d="M83.1912 33.3353V26.5085L76.8359 16.6562H80.8579L84.9552 23.3337L89.0517 16.6562H92.7087L86.378 26.5085L86.7175 33.3353H83.1912Z" fill="#7C878D"/>
<path d="M164.54 33.3353V21.3076L159.873 33.3353H158.334L153.669 21.3076V33.3353H150.143V16.6562H155.083L159.104 27.0829L163.126 16.6562H168.091V33.3353H164.54Z" fill="#7C878D"/>
<path d="M170.838 33.3353V16.6562H182.554V19.7816H174.364V23.2833H182.38V26.4078H174.364V30.2109H182.554V33.3353H170.838Z" fill="#7C878D"/>
<path d="M190.142 33.3353V19.7816H185.301V16.6562H198.508V19.7816H193.692V33.3353H190.142Z" fill="#7C878D"/>
<path d="M210.614 33.3353L207.364 27.4089H204.782V33.3353H201.256V16.6562H209C212.452 16.6562 214.586 18.9307 214.586 22.033C214.648 23.1577 214.316 24.2685 213.649 25.1728C212.983 26.0771 212.023 26.7178 210.936 26.9839L214.686 33.3353H210.614ZM210.964 22.0065C210.961 21.6934 210.894 21.3842 210.766 21.0987C210.639 20.8132 210.453 20.5577 210.222 20.3484C209.991 20.1391 209.719 19.9807 209.424 19.8833C209.128 19.7858 208.816 19.7515 208.506 19.7824H204.782V24.2835H208.506C208.82 24.3133 209.136 24.2763 209.434 24.1751C209.733 24.0739 210.007 23.9106 210.238 23.6959C210.47 23.4812 210.654 23.2199 210.779 22.9288C210.904 22.6378 210.967 22.3236 210.964 22.0065Z" fill="#7C878D"/>
<path d="M216.939 25.009C216.904 23.8582 217.105 22.7124 217.53 21.6433C217.954 20.5742 218.593 19.6046 219.405 18.7952C220.218 17.9857 221.188 17.3537 222.254 16.9386C223.32 16.5234 224.46 16.3341 225.602 16.3824C226.742 16.3368 227.88 16.5282 228.943 16.9446C230.007 17.3611 230.974 17.9936 231.784 18.8029C232.594 19.6122 233.23 20.5808 233.653 21.6485C234.076 22.7162 234.275 23.8602 234.24 25.009C234.275 26.158 234.076 27.3019 233.653 28.3697C233.231 29.4376 232.595 30.4063 231.784 31.2157C230.974 32.025 230.007 32.6577 228.943 33.0742C227.88 33.4907 226.742 33.6821 225.602 33.6366C224.46 33.6849 223.32 33.4955 222.254 33.0803C221.188 32.6651 220.218 32.033 219.405 31.2234C218.592 30.4138 217.954 29.4442 217.529 28.375C217.105 27.3058 216.904 26.16 216.939 25.009ZM230.617 25.009C230.617 21.8863 228.655 19.5333 225.602 19.5333C222.524 19.5333 220.562 21.8863 220.562 25.009C220.562 28.1105 222.524 30.4857 225.602 30.4857C228.655 30.4857 230.617 28.1105 230.617 25.009Z" fill="#7C878D"/>
<path d="M115.207 49.9996L106.655 20.4648L98.1035 49.9996H115.207Z" fill="#1E2859"/>
<path d="M139.85 49.9996L131.297 20.4648L122.746 49.9996H139.85Z" fill="#1E2859"/>
<path d="M110.425 0L118.977 29.5348L127.527 0H110.425Z" fill="#1E2859"/>
<path d="M236.488 18.5431C236.488 18.259 236.542 17.9776 236.65 17.715C236.758 17.4523 236.916 17.2137 237.115 17.0128C237.314 16.8119 237.551 16.6526 237.812 16.5442C238.073 16.4357 238.352 16.3802 238.634 16.3809C238.916 16.3793 239.196 16.4342 239.457 16.5423C239.718 16.6504 239.956 16.8096 240.155 17.0107C240.355 17.2118 240.513 17.4508 240.62 17.7138C240.727 17.9768 240.782 18.2587 240.78 18.5431C240.781 18.8273 240.726 19.1087 240.619 19.3714C240.511 19.6341 240.353 19.8728 240.153 20.0737C239.954 20.2746 239.717 20.4338 239.456 20.5422C239.195 20.6506 238.916 20.7061 238.634 20.7053C238.065 20.705 237.519 20.477 237.117 20.0716C236.714 19.6661 236.488 19.1164 236.488 18.5431ZM236.792 18.5431C236.792 19.0353 236.986 19.5075 237.331 19.8556C237.677 20.2038 238.145 20.3994 238.634 20.3996C239.121 20.3972 239.587 20.2005 239.93 19.8525C240.274 19.5045 240.466 19.0337 240.465 18.5431C240.467 18.3005 240.42 18.0601 240.328 17.8357C240.236 17.6113 240.102 17.4075 239.931 17.2359C239.761 17.0643 239.559 16.9283 239.336 16.8359C239.113 16.7434 238.875 16.6963 238.634 16.6972C238.392 16.6952 238.153 16.7415 237.929 16.8334C237.705 16.9254 237.502 17.0611 237.33 17.2328C237.159 17.4045 237.023 17.6087 236.931 17.8336C236.838 18.0585 236.791 18.2997 236.792 18.5431ZM238.583 18.8082H238.148V19.7872H237.815V17.3096H238.816C238.918 17.3051 239.019 17.3213 239.114 17.3571C239.209 17.3929 239.296 17.4477 239.37 17.5181C239.444 17.5885 239.503 17.6732 239.543 17.767C239.584 17.8608 239.605 17.9619 239.606 18.0642C239.609 18.2428 239.547 18.4165 239.432 18.5519C239.316 18.6873 239.155 18.7748 238.979 18.7976L239.637 19.7872H239.222L238.583 18.8082ZM238.148 17.6056V18.5024H238.816C238.932 18.5004 239.043 18.4539 239.126 18.3725C239.208 18.291 239.257 18.1807 239.262 18.0642C239.262 17.9444 239.215 17.8294 239.132 17.7438C239.048 17.6582 238.935 17.6086 238.816 17.6056H238.148Z" fill="#7C878D"/>
</g>
<defs>
<clipPath id="clip0_12683_1128">
<rect width="240.78" height="50" fill="white"/>
</clipPath>
</defs>
</svg>
