<svg xmlns="http://www.w3.org/2000/svg" width="30" height="30" viewBox="0 0 30 30" fill="none">
  <path d="M3.80117 16.6875C3.19648 15.6422 3.19648 14.3578 3.80117 13.3125L7.94023 6.14532C8.54492 5.10001 9.65586 4.45782 10.8652 4.45782H19.1434C20.348 4.45782 21.4637 5.10001 22.0684 6.14532L26.198 13.3125C26.8027 14.3578 26.8027 15.6422 26.198 16.6875L22.059 23.8547C21.4543 24.9 20.3434 25.5422 19.134 25.5422H10.8559C9.65117 25.5422 8.53555 24.9 7.93086 23.8547L3.80117 16.6875ZM5.75117 14.4375C5.54961 14.7844 5.54961 15.2156 5.75117 15.5625L9.89023 22.7297C10.0918 23.0766 10.4621 23.2922 10.8652 23.2922H19.1434C19.5465 23.2922 19.9168 23.0766 20.1184 22.7297L24.2527 15.5625C24.4543 15.2156 24.4543 14.7844 24.2527 14.4375L20.1137 7.27032C19.9121 6.92345 19.5418 6.70782 19.1387 6.70782H10.8605C10.4574 6.70782 10.0871 6.92345 9.88555 7.27032L5.74648 14.4375H5.75117ZM14.9996 9.00001C15.623 9.00001 16.1246 9.50157 16.1246 10.125V15.375C16.1246 15.9984 15.623 16.5 14.9996 16.5C14.3762 16.5 13.8746 15.9984 13.8746 15.375V10.125C13.8746 9.50157 14.3762 9.00001 14.9996 9.00001ZM13.4996 19.5C13.4996 19.1022 13.6576 18.7207 13.9389 18.4394C14.2203 18.158 14.6018 18 14.9996 18C15.3974 18 15.779 18.158 16.0603 18.4394C16.3416 18.7207 16.4996 19.1022 16.4996 19.5C16.4996 19.8978 16.3416 20.2794 16.0603 20.5607C15.779 20.842 15.3974 21 14.9996 21C14.6018 21 14.2203 20.842 13.9389 20.5607C13.6576 20.2794 13.4996 19.8978 13.4996 19.5Z" fill="#404040"/>
</svg>