<svg width="20" height="20" viewBox="0 0 20 20" fill="none" xmlns="http://www.w3.org/2000/svg">
<path id="Primary" d="M0.5 2.5C0.5 1.12109 1.5994 0 2.95161 0H9.08065V5C9.08065 5.69141 9.62843 6.25 10.3065 6.25H15.2097V11.875H7.24194C5.88972 11.875 4.79032 12.9961 4.79032 14.375V20H2.95161C1.5994 20 0.5 18.8789 0.5 17.5V2.5ZM15.2097 5H10.3065V0L15.2097 5ZM7.24194 13.75H8.46774C9.65141 13.75 10.6129 14.7305 10.6129 15.9375C10.6129 17.1445 9.65141 18.125 8.46774 18.125H7.85484V19.375C7.85484 19.7188 7.57903 20 7.24194 20C6.90484 20 6.62903 19.7188 6.62903 19.375V17.5V14.375C6.62903 14.0312 6.90484 13.75 7.24194 13.75ZM8.46774 16.875C8.97722 16.875 9.3871 16.457 9.3871 15.9375C9.3871 15.418 8.97722 15 8.46774 15H7.85484V16.875H8.46774ZM12.1452 13.75H13.371C14.3861 13.75 15.2097 14.5898 15.2097 15.625V18.125C15.2097 19.1602 14.3861 20 13.371 20H12.1452C11.8081 20 11.5323 19.7188 11.5323 19.375V14.375C11.5323 14.0312 11.8081 13.75 12.1452 13.75ZM13.371 18.75C13.7081 18.75 13.9839 18.4688 13.9839 18.125V15.625C13.9839 15.2812 13.7081 15 13.371 15H12.7581V18.75H13.371ZM16.4355 14.375C16.4355 14.0312 16.7113 13.75 17.0484 13.75H18.8871C19.2242 13.75 19.5 14.0312 19.5 14.375C19.5 14.7188 19.2242 15 18.8871 15H17.6613V16.25H18.8871C19.2242 16.25 19.5 16.5312 19.5 16.875C19.5 17.2188 19.2242 17.5 18.8871 17.5H17.6613V19.375C17.6613 19.7188 17.3855 20 17.0484 20C16.7113 20 16.4355 19.7188 16.4355 19.375V16.875V14.375Z" fill="white"/>
</svg>
