<svg xmlns="http://www.w3.org/2000/svg" width="20" height="20" viewBox="0 0 20 20" fill="none">
  <path d="M4 16.5013H5.5V18.0013H4C2.89688 18.0013 2 17.1045 2 16.0013V4.00134C2 2.89822 2.89688 2.00134 4 2.00134H9.17188C9.70312 2.00134 10.2125 2.21072 10.5875 2.58572L13.4156 5.41384C13.7906 5.78884 14 6.29822 14 6.82947V11.5013H12.5V7.00134H10C9.44688 7.00134 9 6.55447 9 6.00134V3.50134H4C3.725 3.50134 3.5 3.72634 3.5 4.00134V16.0013C3.5 16.2763 3.725 16.5013 4 16.5013ZM7.5 13.0013H8.5C9.46562 13.0013 10.25 13.7857 10.25 14.7513C10.25 15.717 9.46562 16.5013 8.5 16.5013H8V17.5013C8 17.7763 7.775 18.0013 7.5 18.0013C7.225 18.0013 7 17.7763 7 17.5013V16.0013V13.5013C7 13.2263 7.225 13.0013 7.5 13.0013ZM8.5 15.5013C8.91563 15.5013 9.25 15.167 9.25 14.7513C9.25 14.3357 8.91563 14.0013 8.5 14.0013H8V15.5013H8.5ZM11.5 13.0013H12.5C13.3281 13.0013 14 13.6732 14 14.5013V16.5013C14 17.3295 13.3281 18.0013 12.5 18.0013H11.5C11.225 18.0013 11 17.7763 11 17.5013V13.5013C11 13.2263 11.225 13.0013 11.5 13.0013ZM12.5 17.0013C12.775 17.0013 13 16.7763 13 16.5013V14.5013C13 14.2263 12.775 14.0013 12.5 14.0013H12V17.0013H12.5ZM15 13.5013C15 13.2263 15.225 13.0013 15.5 13.0013H17C17.275 13.0013 17.5 13.2263 17.5 13.5013C17.5 13.7763 17.275 14.0013 17 14.0013H16V15.0013H17C17.275 15.0013 17.5 15.2263 17.5 15.5013C17.5 15.7763 17.275 16.0013 17 16.0013H16V17.5013C16 17.7763 15.775 18.0013 15.5 18.0013C15.225 18.0013 15 17.7763 15 17.5013V15.5013V13.5013Z" fill="#404040"/>
</svg>