<svg width="19" height="20" viewBox="0 0 19 20" fill="none" xmlns="http://www.w3.org/2000/svg">
<path id="Primary" d="M0 2.5C0 1.12109 1.0994 0 2.45161 0H8.58065V5C8.58065 5.69141 9.12843 6.25 9.80645 6.25H14.7097V11.875H6.74194C5.38972 11.875 4.29032 12.9961 4.29032 14.375V20H2.45161C1.0994 20 0 18.8789 0 17.5V2.5ZM14.7097 5H9.80645V0L14.7097 5ZM6.74194 13.75H7.96774C9.15141 13.75 10.1129 14.7305 10.1129 15.9375C10.1129 17.1445 9.15141 18.125 7.96774 18.125H7.35484V19.375C7.35484 19.7188 7.07903 20 6.74194 20C6.40484 20 6.12903 19.7188 6.12903 19.375V17.5V14.375C6.12903 14.0312 6.40484 13.75 6.74194 13.75ZM7.96774 16.875C8.47722 16.875 8.8871 16.457 8.8871 15.9375C8.8871 15.418 8.47722 15 7.96774 15H7.35484V16.875H7.96774ZM11.6452 13.75H12.871C13.8861 13.75 14.7097 14.5898 14.7097 15.625V18.125C14.7097 19.1602 13.8861 20 12.871 20H11.6452C11.3081 20 11.0323 19.7188 11.0323 19.375V14.375C11.0323 14.0312 11.3081 13.75 11.6452 13.75ZM12.871 18.75C13.2081 18.75 13.4839 18.4688 13.4839 18.125V15.625C13.4839 15.2812 13.2081 15 12.871 15H12.2581V18.75H12.871ZM15.9355 14.375C15.9355 14.0312 16.2113 13.75 16.5484 13.75H18.3871C18.7242 13.75 19 14.0312 19 14.375C19 14.7188 18.7242 15 18.3871 15H17.1613V16.25H18.3871C18.7242 16.25 19 16.5312 19 16.875C19 17.2188 18.7242 17.5 18.3871 17.5H17.1613V19.375C17.1613 19.7188 16.8855 20 16.5484 20C16.2113 20 15.9355 19.7188 15.9355 19.375V16.875V14.375Z" fill="#1E2859"/>
</svg>
