<svg width="24" height="25" viewBox="0 0 24 25" fill="none" xmlns="http://www.w3.org/2000/svg">
<g id="pedal_bike">
<mask id="mask0_10613_6168" style="mask-type:alpha" maskUnits="userSpaceOnUse" x="0" y="0" width="24" height="25">
<rect id="Bounding box" y="0.978516" width="24" height="24" fill="#D9D9D9"/>
</mask>
<g mask="url(#mask0_10613_6168)">
<path id="pedal_bike_2" d="M5 20.9785C3.58333 20.9785 2.39583 20.4993 1.4375 19.541C0.479167 18.5827 0 17.3952 0 15.9785C0 14.5618 0.4875 13.3743 1.4625 12.416C2.4375 11.4577 3.61667 10.9785 5 10.9785C6.28333 10.9785 7.3625 11.3618 8.2375 12.1285C9.1125 12.8952 9.66667 13.8452 9.9 14.9785H10.55L8.75 9.97852H7V7.97852H12V9.97852H10.9L11.25 10.9785H16.05L14.6 6.97852H12V4.97852H14.6C15.0333 4.97852 15.4208 5.09518 15.7625 5.32852C16.1042 5.56185 16.35 5.87852 16.5 6.27852L18.2 10.9285H19C20.3833 10.9285 21.5625 11.416 22.5375 12.391C23.5125 13.366 24 14.5452 24 15.9285C24 17.3285 23.5167 18.5202 22.55 19.5035C21.5833 20.4868 20.4 20.9785 19 20.9785C17.8 20.9785 16.7458 20.6035 15.8375 19.8535C14.9292 19.1035 14.35 18.1452 14.1 16.9785H9.9C9.66667 18.1285 9.1 19.0827 8.2 19.841C7.3 20.5993 6.23333 20.9785 5 20.9785ZM5 18.9785C5.68333 18.9785 6.27083 18.791 6.7625 18.416C7.25417 18.041 7.6 17.5618 7.8 16.9785H5V14.9785H7.8C7.6 14.3785 7.25417 13.8952 6.7625 13.5285C6.27083 13.1618 5.68333 12.9785 5 12.9785C4.15 12.9785 3.4375 13.266 2.8625 13.841C2.2875 14.416 2 15.1285 2 15.9785C2 16.8118 2.2875 17.5202 2.8625 18.1035C3.4375 18.6868 4.15 18.9785 5 18.9785ZM12.7 14.9785H14.1C14.1833 14.5952 14.2958 14.2368 14.4375 13.9035C14.5792 13.5702 14.7667 13.2618 15 12.9785H11.95L12.7 14.9785ZM19 18.9785C19.85 18.9785 20.5625 18.6868 21.1375 18.1035C21.7125 17.5202 22 16.8118 22 15.9785C22 15.1285 21.7125 14.416 21.1375 13.841C20.5625 13.266 19.85 12.9785 19 12.9785H18.9L19.9 15.6285L18 16.3285L17.05 13.6785C16.7167 13.9618 16.4583 14.2952 16.275 14.6785C16.0917 15.0618 16 15.4952 16 15.9785C16 16.8118 16.2875 17.5202 16.8625 18.1035C17.4375 18.6868 18.15 18.9785 19 18.9785Z" fill="#1E2859"/>
</g>
</g>
</svg>
