<svg width="24" height="25" viewBox="0 0 24 25" fill="none" xmlns="http://www.w3.org/2000/svg">
<g id="restaurant">
<mask id="mask0_10613_6174" style="mask-type:alpha" maskUnits="userSpaceOnUse" x="0" y="0" width="24" height="25">
<rect id="Bounding box" y="0.978516" width="24" height="24" fill="#D9D9D9"/>
</mask>
<g mask="url(#mask0_10613_6174)">
<path id="restaurant_2" d="M7 22.9785V13.8285C6.15 13.5952 5.4375 13.1285 4.8625 12.4285C4.2875 11.7285 4 10.9118 4 9.97852V2.97852H6V9.97852H7V2.97852H9V9.97852H10V2.97852H12V9.97852C12 10.9118 11.7125 11.7285 11.1375 12.4285C10.5625 13.1285 9.85 13.5952 9 13.8285V22.9785H7ZM17 22.9785V14.9785H14V7.97852C14 6.59518 14.4875 5.41602 15.4625 4.44102C16.4375 3.46602 17.6167 2.97852 19 2.97852V22.9785H17Z" fill="#1E2859"/>
</g>
</g>
</svg>
