<svg width="24" height="24" viewBox="0 0 24 24" fill="none" xmlns="http://www.w3.org/2000/svg">
<g id="search">
<mask id="mask0_12683_1166" style="mask-type:alpha" maskUnits="userSpaceOnUse" x="0" y="0" width="24" height="24">
<rect id="Bounding box" width="24" height="24" fill="#D9D9D9"/>
</mask>
<g mask="url(#mask0_12683_1166)">
<path id="Path 315" d="M22.2858 20.9027L18.0163 16.6332C19.2051 15.0724 19.8422 13.1612 19.8276 11.1993C19.835 10.0079 19.6058 8.8269 19.1532 7.72478C18.7007 6.62265 18.0339 5.62133 17.1915 4.77888C16.349 3.93643 15.3477 3.26961 14.2456 2.81709C13.1434 2.36458 11.9624 2.13536 10.7711 2.14275C9.57967 2.13536 8.39868 2.36458 7.29655 2.81709C6.19443 3.26961 5.19311 3.93643 4.35066 4.77888C3.50821 5.62133 2.84139 6.62265 2.38887 7.72478C1.93635 8.8269 1.70714 10.0079 1.71453 11.1993C1.70714 12.3907 1.93635 13.5717 2.38887 14.6738C2.84139 15.7759 3.50821 16.7772 4.35066 17.6197C5.19311 18.4621 6.19443 19.129 7.29655 19.5815C8.39868 20.034 9.57967 20.2632 10.7711 20.2558C12.733 20.2704 14.6442 19.6334 16.205 18.4445L20.4745 22.714L22.2858 20.9027ZM4.30211 11.1993C4.29363 10.3474 4.45517 9.50241 4.77727 8.71373C5.09936 7.92505 5.57554 7.20855 6.17793 6.60616C6.78033 6.00376 7.49683 5.52758 8.28551 5.20549C9.07418 4.8834 9.91919 4.72186 10.7711 4.73033C11.6229 4.72186 12.4679 4.8834 13.2566 5.20549C14.0453 5.52758 14.7618 6.00376 15.3642 6.60616C15.9666 7.20855 16.4428 7.92505 16.7648 8.71373C17.0869 9.50241 17.2485 10.3474 17.24 11.1993C17.2485 12.0512 17.0869 12.8962 16.7648 13.6848C16.4428 14.4735 15.9666 15.19 15.3642 15.7924C14.7618 16.3948 14.0453 16.871 13.2566 17.1931C12.4679 17.5152 11.6229 17.6767 10.7711 17.6682C9.91919 17.6767 9.07418 17.5152 8.28551 17.1931C7.49683 16.871 6.78033 16.3948 6.17793 15.7924C5.57554 15.19 5.09936 14.4735 4.77727 13.6848C4.45517 12.8962 4.29363 12.0512 4.30211 11.1993Z" fill="white"/>
</g>
</g>
</svg>
