<svg xmlns="http://www.w3.org/2000/svg" width="16" height="16" viewBox="0 0 16 16" fill="none">
  <path d="M10.6245 6.87598C10.6245 5.88141 10.2294 4.92759 9.52616 4.22433C8.8229 3.52106 7.86907 3.12598 6.87451 3.12598C5.87995 3.12598 4.92612 3.52106 4.22286 4.22433C3.5196 4.92759 3.12451 5.88141 3.12451 6.87598C3.12451 7.87054 3.5196 8.82437 4.22286 9.52763C4.92612 10.2309 5.87995 10.626 6.87451 10.626C7.86907 10.626 8.8229 10.2309 9.52616 9.52763C10.2294 8.82437 10.6245 7.87054 10.6245 6.87598ZM9.90029 10.6986C9.07061 11.3572 8.01826 11.751 6.87451 11.751C4.18154 11.751 1.99951 9.56894 1.99951 6.87598C1.99951 4.18301 4.18154 2.00098 6.87451 2.00098C9.56748 2.00098 11.7495 4.18301 11.7495 6.87598C11.7495 8.01973 11.3558 9.07207 10.6972 9.90176L13.8354 13.04C14.0558 13.2604 14.0558 13.6166 13.8354 13.8346C13.6151 14.0525 13.2589 14.0549 13.0409 13.8346L9.90029 10.6986Z" fill="#404040"/>
</svg>