<svg width="21" height="22" viewBox="0 0 21 22" fill="none" xmlns="http://www.w3.org/2000/svg">
<path id="Path 315" d="M16.2444 14.8888L15.9778 15.2374L16.2888 15.547L20.2913 19.532L19.151 20.6674L15.1453 16.6793L14.837 16.3723L14.4904 16.6352C12.9852 17.7767 11.1417 18.3886 9.24909 18.3746V18.3745L9.2423 18.3746C8.09197 18.3817 6.95172 18.1613 5.88769 17.7263C4.82367 17.2914 3.85711 16.6505 3.044 15.8409C2.2309 15.0314 1.58743 14.0693 1.1508 13.0105C0.714175 11.9518 0.49304 10.8173 0.500167 9.6729H0.500206L0.500167 9.66667C0.49304 8.52228 0.714175 7.38781 1.1508 6.32903C1.58743 5.27025 2.2309 4.30817 3.044 3.49862C3.85711 2.68908 4.82367 2.04818 5.88769 1.61322C6.95172 1.17826 8.09197 0.957909 9.2423 0.96501L9.2423 0.965048L9.24847 0.96501C10.3988 0.957909 11.539 1.17826 12.6031 1.61322C13.6671 2.04818 14.6337 2.68908 15.4468 3.49862C16.2599 4.30817 16.9033 5.27025 17.34 6.32903C17.7766 7.38781 17.9977 8.52228 17.9906 9.66667L17.9906 9.66667L17.9906 9.67353C18.0047 11.5563 17.3907 13.3906 16.2444 14.8888ZM2.66413 6.9538C2.31063 7.81557 2.13301 8.73886 2.14164 9.66978C2.13301 10.6007 2.31063 11.524 2.66413 12.3858C3.01825 13.2491 3.54172 14.0332 4.20379 14.6924C4.86586 15.3516 5.65321 15.8725 6.51972 16.2249C7.38469 16.5766 8.31126 16.7532 9.24538 16.7446C10.1795 16.7532 11.1061 16.5766 11.971 16.2249C12.8376 15.8725 13.6249 15.3516 14.287 14.6924C14.949 14.0332 15.4725 13.2491 15.8266 12.3858C16.1801 11.524 16.3578 10.6007 16.3491 9.66978C16.3578 8.73886 16.1801 7.81557 15.8266 6.9538C15.4725 6.09049 14.949 5.30633 14.287 4.64716C13.6249 3.98799 12.8376 3.46705 11.971 3.11471C11.1061 2.76301 10.1795 2.58633 9.24538 2.59493C8.31126 2.58633 7.38469 2.76301 6.51972 3.11471C5.65321 3.46705 4.86586 3.98799 4.20379 4.64715C3.54172 5.30633 3.01825 6.09049 2.66413 6.9538Z" fill="#EA0029" stroke="#EA0029"/>
</svg>
