<svg width="21" height="22" viewBox="0 0 21 22" fill="none" xmlns="http://www.w3.org/2000/svg">
<path id="Path 315" d="M21 19.6141L16.6415 15.2747C17.8552 13.6884 18.5055 11.7458 18.4906 9.75182C18.4981 8.54093 18.2641 7.3406 17.8022 6.22044C17.3403 5.10028 16.6595 4.08257 15.7995 3.22633C14.9395 2.37009 13.9174 1.69235 12.7923 1.23243C11.6672 0.772506 10.4616 0.539543 9.24538 0.547051C8.02918 0.539543 6.82358 0.772506 5.69849 1.23243C4.57341 1.69235 3.55123 2.37009 2.69122 3.22633C1.83122 4.08257 1.15051 5.10028 0.688567 6.22044C0.226622 7.3406 -0.00736404 8.54093 0.000176621 9.75182C-0.00736404 10.9627 0.226622 12.163 0.688567 13.2832C1.15051 14.4034 1.83122 15.4211 2.69122 16.2773C3.55123 17.1335 4.57341 17.8113 5.69849 18.2712C6.82358 18.7311 8.02918 18.9641 9.24538 18.9566C11.2482 18.9715 13.1992 18.3239 14.7925 17.1156L19.151 21.455L21 19.6141ZM2.64166 9.75182C2.63301 8.886 2.79792 8.02717 3.12672 7.22558C3.45553 6.424 3.94163 5.69577 4.55657 5.08351C5.17151 4.47126 5.90294 3.98729 6.70805 3.65992C7.51316 3.33255 8.37576 3.16837 9.24538 3.17698C10.115 3.16837 10.9776 3.33255 11.7827 3.65992C12.5878 3.98729 13.3193 4.47126 13.9342 5.08351C14.5491 5.69577 15.0352 6.424 15.364 7.22558C15.6928 8.02717 15.8578 8.886 15.8491 9.75182C15.8578 10.6176 15.6928 11.4765 15.364 12.278C15.0352 13.0796 14.5491 13.8079 13.9342 14.4201C13.3193 15.0324 12.5878 15.5163 11.7827 15.8437C10.9776 16.1711 10.115 16.3353 9.24538 16.3266C8.37576 16.3353 7.51316 16.1711 6.70805 15.8437C5.90294 15.5163 5.17151 15.0324 4.55657 14.4201C3.94163 13.8079 3.45553 13.0796 3.12672 12.278C2.79792 11.4765 2.63301 10.6176 2.64166 9.75182Z" fill="#1E2859"/>
</svg>
