<svg width="24" height="24" viewBox="0 0 24 24" fill="none" xmlns="http://www.w3.org/2000/svg">
<g id="sms">
<mask id="mask0_12683_1172" style="mask-type:alpha" maskUnits="userSpaceOnUse" x="0" y="0" width="24" height="24">
<rect id="Bounding box" width="24" height="24" fill="#D9D9D9"/>
</mask>
<g mask="url(#mask0_12683_1172)">
<path id="sms_2" d="M2 22V3.66675C2 3.21675 2.16525 2.82642 2.49575 2.49575C2.82642 2.16525 3.21675 2 3.66675 2H20.3333C20.7833 2 21.1736 2.16525 21.5043 2.49575C21.8348 2.82642 22 3.21675 22 3.66675V16.3333C22 16.7833 21.8348 17.1736 21.5043 17.5043C21.1736 17.8348 20.7833 18 20.3333 18H6L2 22ZM7.76675 10.95C8.05008 10.95 8.28758 10.8542 8.47925 10.6625C8.67092 10.4708 8.76675 10.2333 8.76675 9.95C8.76675 9.66667 8.67092 9.42917 8.47925 9.2375C8.28758 9.04583 8.05008 8.95 7.76675 8.95C7.48342 8.95 7.24592 9.04583 7.05425 9.2375C6.86258 9.42917 6.76675 9.66667 6.76675 9.95C6.76675 10.2333 6.86258 10.4708 7.05425 10.6625C7.24592 10.8542 7.48342 10.95 7.76675 10.95ZM12.05 10.95C12.3333 10.95 12.5708 10.8542 12.7625 10.6625C12.9542 10.4708 13.05 10.2333 13.05 9.95C13.05 9.66667 12.9542 9.42917 12.7625 9.2375C12.5708 9.04583 12.3333 8.95 12.05 8.95C11.7667 8.95 11.5292 9.04583 11.3375 9.2375C11.1458 9.42917 11.05 9.66667 11.05 9.95C11.05 10.2333 11.1458 10.4708 11.3375 10.6625C11.5292 10.8542 11.7667 10.95 12.05 10.95ZM16.2168 10.95C16.5001 10.95 16.7376 10.8542 16.9293 10.6625C17.1209 10.4708 17.2168 10.2333 17.2168 9.95C17.2168 9.66667 17.1209 9.42917 16.9293 9.2375C16.7376 9.04583 16.5001 8.95 16.2168 8.95C15.9334 8.95 15.6959 9.04583 15.5043 9.2375C15.3126 9.42917 15.2168 9.66667 15.2168 9.95C15.2168 10.2333 15.3126 10.4708 15.5043 10.6625C15.6959 10.8542 15.9334 10.95 16.2168 10.95Z" fill="white"/>
</g>
</g>
</svg>
