<svg width="17" height="16" viewBox="0 0 17 16" fill="none" xmlns="http://www.w3.org/2000/svg">
<path d="M0.5 6.99931C0.5 7.55243 0.946875 7.99931 1.5 7.99931C2.05313 7.99931 2.5 7.55243 2.5 6.99931C2.5 5.34306 3.84375 3.99931 5.5 3.99931H10.5V4.99931C10.5 5.40243 10.7437 5.76806 11.1187 5.92431C11.4937 6.08056 11.9219 5.99306 12.2094 5.70868L14.2094 3.70868C14.6 3.31806 14.6 2.68368 14.2094 2.29306L12.2094 0.293056C11.9219 0.00555554 11.4937 -0.0788194 11.1187 0.0774306C10.7437 0.233681 10.5 0.596181 10.5 0.999306V1.99931H5.5C2.7375 1.99931 0.5 4.23681 0.5 6.99931ZM16.5 8.99931C16.5 8.44618 16.0531 7.99931 15.5 7.99931C14.9469 7.99931 14.5 8.44618 14.5 8.99931C14.5 10.6556 13.1562 11.9993 11.5 11.9993H6.5V10.9993C6.5 10.5962 6.25625 10.2306 5.88125 10.0743C5.50625 9.91806 5.07812 10.0056 4.79063 10.2899L2.79063 12.2899C2.4 12.6806 2.4 13.3149 2.79063 13.7056L4.79063 15.7056C5.07812 15.9931 5.50625 16.0774 5.88125 15.9212C6.25625 15.7649 6.5 15.4024 6.5 14.9962V13.9993H11.5C14.2625 13.9993 16.5 11.7618 16.5 8.99931Z" fill="#1E2859"/>
</svg>
