<svg width="24" height="25" viewBox="0 0 24 25" fill="none" xmlns="http://www.w3.org/2000/svg">
<g id="Group 2257">
<mask id="mask0_10613_6165" style="mask-type:alpha" maskUnits="userSpaceOnUse" x="0" y="0" width="24" height="25">
<rect id="Bounding box" y="0.978516" width="24" height="24" fill="#D9D9D9"/>
</mask>
<g mask="url(#mask0_10613_6165)">
<path id="accessible" d="M12 6.97852C11.45 6.97852 10.9792 6.78268 10.5875 6.39102C10.1958 5.99935 10 5.52852 10 4.97852C10 4.42852 10.1958 3.95768 10.5875 3.56602C10.9792 3.17435 11.45 2.97852 12 2.97852C12.55 2.97852 13.0208 3.17435 13.4125 3.56602C13.8042 3.95768 14 4.42852 14 4.97852C14 5.52852 13.8042 5.99935 13.4125 6.39102C13.0208 6.78268 12.55 6.97852 12 6.97852ZM17 22.9785V17.9785H12C11.45 17.9785 10.9792 17.7827 10.5875 17.391C10.1958 16.9993 10 16.5285 10 15.9785V9.97852C10 9.42852 10.1958 8.95768 10.5875 8.56602C10.9792 8.17435 11.45 7.97852 12 7.97852C12.4 7.97852 12.7458 8.06602 13.0375 8.24102C13.3292 8.41602 13.6417 8.69518 13.975 9.07852C14.8917 10.1785 15.7208 10.9327 16.4625 11.341C17.2042 11.7493 18.05 11.9618 19 11.9785V13.9785C18.1167 13.9785 17.225 13.7868 16.325 13.4035C15.425 13.0202 14.65 12.5618 14 12.0285V15.4785H17C17.55 15.4785 18.0208 15.6743 18.4125 16.066C18.8042 16.4577 19 16.9285 19 17.4785V22.9785H17ZM10 22.9785C8.61667 22.9785 7.4375 22.491 6.4625 21.516C5.4875 20.541 5 19.3618 5 17.9785C5 16.7785 5.37917 15.7202 6.1375 14.8035C6.89583 13.8868 7.85 13.3118 9 13.0785V15.1285C8.41667 15.3618 7.9375 15.7327 7.5625 16.241C7.1875 16.7493 7 17.3285 7 17.9785C7 18.8118 7.29167 19.5202 7.875 20.1035C8.45833 20.6868 9.16667 20.9785 10 20.9785C10.65 20.9785 11.2292 20.791 11.7375 20.416C12.2458 20.041 12.6167 19.5618 12.85 18.9785H14.9C14.6667 20.1285 14.0917 21.0827 13.175 21.841C12.2583 22.5993 11.2 22.9785 10 22.9785Z" fill="#1E2859"/>
</g>
</g>
</svg>
