<svg width="32" height="36" viewBox="0 0 32 36" fill="none" xmlns="http://www.w3.org/2000/svg">
<g id="Group 2254">
<path id="bus_railway" d="M8 24.8889C8.74074 24.8889 9.37037 24.6296 9.88889 24.1111C10.4074 23.5926 10.6667 22.963 10.6667 22.2222C10.6667 21.4815 10.4074 20.8519 9.88889 20.3333C9.37037 19.8148 8.74074 19.5556 8 19.5556C7.25926 19.5556 6.62963 19.8148 6.11111 20.3333C5.59259 20.8519 5.33333 21.4815 5.33333 22.2222C5.33333 22.963 5.59259 23.5926 6.11111 24.1111C6.62963 24.6296 7.25926 24.8889 8 24.8889ZM16 35.5556L19.5556 32C18.5778 32 17.7407 31.6519 17.0444 30.9556C16.3481 30.2593 16 29.4222 16 28.4444V21.3333C16 19.2296 16.7407 17.5185 18.2222 16.2C19.7037 14.8815 21.6296 14.2222 24 14.2222C26.3704 14.2222 28.2963 14.8815 29.7778 16.2C31.2593 17.5185 32 19.2296 32 21.3333V28.4444C32 29.4222 31.6519 30.2593 30.9556 30.9556C30.2593 31.6519 29.4222 32 28.4444 32L32 35.5556H16ZM24 28.4444C24.3556 28.4444 24.6667 28.3111 24.9333 28.0444C25.2 27.7778 25.3333 27.4667 25.3333 27.1111C25.3333 26.7556 25.2 26.4444 24.9333 26.1778C24.6667 25.9111 24.3556 25.7778 24 25.7778C23.6444 25.7778 23.3333 25.9111 23.0667 26.1778C22.8 26.4444 22.6667 26.7556 22.6667 27.1111C22.6667 27.4667 22.8 27.7778 23.0667 28.0444C23.3333 28.3111 23.6444 28.4444 24 28.4444ZM18.6667 23.1111H29.3333V21.3333C29.3333 21.0074 29.3037 20.6963 29.2444 20.4C29.1852 20.1037 29.0963 19.8222 28.9778 19.5556H19.0222C18.9037 19.8222 18.8148 20.1037 18.7556 20.4C18.6963 20.6963 18.6667 21.0074 18.6667 21.3333V23.1111ZM3.55556 33.7778C3.05185 33.7778 2.62963 33.6074 2.28889 33.2667C1.94815 32.9259 1.77778 32.5037 1.77778 32V28.3556C1.24444 27.763 0.814815 27.1037 0.488889 26.3778C0.162963 25.6519 0 24.8593 0 24V7.11111C0 4.65185 1.14074 2.85185 3.42222 1.71111C5.7037 0.57037 9.3037 0 14.2222 0C19.3185 0 22.963 0.548148 25.1556 1.64444C27.3482 2.74074 28.4444 4.56296 28.4444 7.11111V11.3778C27.9111 11.2 27.3481 11.0593 26.7556 10.9556C26.163 10.8519 25.5407 10.7704 24.8889 10.7111V8.88889H3.55556V14.2222H15.1111C14.2222 15.2 13.5556 16.2963 13.1111 17.5111C12.6667 18.7259 12.4444 20 12.4444 21.3333V30.2222H7.11111V32C7.11111 32.5037 6.94074 32.9259 6.6 33.2667C6.25926 33.6074 5.83704 33.7778 5.33333 33.7778H3.55556Z" fill="#1E2859"/>
</g>
</svg>
