<svg width="66" height="56" viewBox="0 0 66 56" fill="none" xmlns="http://www.w3.org/2000/svg">
<g clip-path="url(#clip0_6223_2479)">
<path d="M20.1378 28.5898C20.5916 29.8423 21.0273 31.0403 21.4085 32.1658C22.0801 34.1262 24.8574 34.1262 25.5291 32.1658C25.9103 31.0403 26.3459 29.8423 26.7997 28.5898C28.1249 25.0319 29.8856 21.6011 32.2999 18.6786C33.9336 16.7 34.8957 14.1768 34.8957 11.4358C34.8957 4.93726 29.4863 -0.290613 22.9151 -0.000175498C17.0156 0.27211 12.2052 5.1914 12.0419 11.0909C11.9693 13.9227 12.9132 16.5185 14.5469 18.5515C16.9612 21.5467 18.8127 24.9593 20.1378 28.5716V28.5898ZM23.4597 5.46368C26.7453 5.46368 29.4137 8.13208 29.4137 11.4177C29.4137 14.7032 26.7453 17.3716 23.4597 17.3716C20.1741 17.3716 17.5057 14.7032 17.5057 11.4177C17.5057 8.13208 20.1741 5.46368 23.4597 5.46368Z" fill="#0081C6"/>
<path d="M56.0796 30.8223C55.5714 29.6242 54.3915 28.8437 53.0845 28.8437H43.9357L41.1403 35.7416L60.2365 40.6246L56.0796 30.8223Z" fill="#072C49" stroke="#072C49" stroke-width="0.453809" stroke-miterlimit="10"/>
<path d="M39.5425 28.8437H31.0654C30.902 29.2249 30.7568 29.6242 30.6116 30.0054C30.2122 31.1127 29.7765 32.2926 29.3772 33.4725C28.5059 36.0139 26.1279 37.702 23.4595 37.702C20.7911 37.702 18.4313 36.0139 17.56 33.4725C17.1607 32.2745 16.725 31.1127 16.3257 30.0054C16.1804 29.6061 16.0352 29.2249 15.8718 28.8437H12.913C11.606 28.8437 10.4261 29.6242 9.91787 30.8223L4.47217 43.656H33.5159L39.5425 28.8437Z" fill="#072C49" stroke="#072C49" stroke-width="0.453809" stroke-miterlimit="10"/>
<path d="M2.74853 47.7224L1.24188 51.2621C0.334265 53.4041 1.91352 55.7821 4.23702 55.7821H39.3255L33.8072 47.7224H2.74853Z" fill="#072C49" stroke="#072C49" stroke-width="0.453809" stroke-miterlimit="10"/>
<path d="M64.7389 51.2622L62.2157 45.3263L39.5797 39.5539L37.1836 45.4534L44.263 55.8002H61.7256C64.0491 55.8002 65.6283 53.4223 64.7207 51.2803L64.7389 51.2622Z" fill="#072C49" stroke="#072C49" stroke-width="0.453809" stroke-miterlimit="10"/>
</g>
<defs>
<clipPath id="clip0_6223_2479">
<rect width="64.459" height="56" fill="white" transform="translate(0.770508)"/>
</clipPath>
</defs>
</svg>
