<svg xmlns="http://www.w3.org/2000/svg" width="20" height="20" viewBox="0 0 20 20" fill="none">
  <path d="M10.0002 3.5C10.0002 3.10218 10.1582 2.72064 10.4395 2.43934C10.7208 2.15804 11.1024 2 11.5002 2C11.898 2 12.2796 2.15804 12.5609 2.43934C12.8422 2.72064 13.0002 3.10218 13.0002 3.5C13.0002 3.89782 12.8422 4.27936 12.5609 4.56066C12.2796 4.84196 11.898 5 11.5002 5C11.1024 5 10.7208 4.84196 10.4395 4.56066C10.1582 4.27936 10.0002 3.89782 10.0002 3.5ZM10.3658 7.525L9.43145 10.3313C9.39707 10.4313 9.43145 10.5375 9.50957 10.6031L10.0221 11.0188L11.0346 7.775C11.0377 7.76562 11.0408 7.75313 11.0439 7.74375C10.8346 7.63438 10.6064 7.55937 10.3658 7.52187V7.525ZM12.1658 9.18437L11.2752 12.0375L12.8408 13.3094C13.0564 13.4844 13.2064 13.7281 13.2721 14L13.9846 17.0813C14.0783 17.4844 13.8252 17.8875 13.4221 17.9812C13.0189 18.075 12.6158 17.8219 12.5221 17.4187L11.8314 14.4187L8.5627 11.7688C8.0002 11.3094 7.77832 10.5469 8.00645 9.85625L8.71895 7.72188C7.94707 8.02813 7.32207 8.625 6.98145 9.3875L6.68457 10.0531C6.51582 10.4313 6.07207 10.6031 5.69395 10.4344C5.31582 10.2656 5.14395 9.82188 5.3127 9.44375L5.60957 8.78125C6.14395 7.57812 7.15957 6.65625 8.40645 6.24062C8.88457 6.08125 9.38457 6 9.8877 6H10.0408C11.6814 6 13.1252 7.0875 13.5783 8.66875L13.9189 9.85938L14.7814 10.7188C15.0752 11.0125 15.0752 11.4875 14.7814 11.7781C14.4877 12.0687 14.0127 12.0719 13.7221 11.7781L12.8127 10.8719C12.6627 10.7219 12.5533 10.5344 12.4939 10.3313L12.1658 9.18437ZM7.35957 14.5781L8.1127 12.6906L9.33145 13.6812L8.73145 15.1812C8.66895 15.3375 8.5752 15.4813 8.45332 15.6L6.28145 17.7812C5.9877 18.075 5.5127 18.075 5.22207 17.7812C4.93145 17.4875 4.92832 17.0125 5.22207 16.7219L7.3627 14.5813L7.35957 14.5781Z" fill="#404040"/>
</svg>