<svg width="24" height="25" viewBox="0 0 24 25" fill="none" xmlns="http://www.w3.org/2000/svg">
<g id="wc">
<mask id="mask0_10613_6171" style="mask-type:alpha" maskUnits="userSpaceOnUse" x="0" y="0" width="24" height="25">
<rect id="Bounding box" y="0.978516" width="24" height="24" fill="#D9D9D9"/>
</mask>
<g mask="url(#mask0_10613_6171)">
<path id="wc_2" d="M5.5 22.9785V15.4785H4V9.97852C4 9.42852 4.19583 8.95768 4.5875 8.56602C4.97917 8.17435 5.45 7.97852 6 7.97852H9C9.55 7.97852 10.0208 8.17435 10.4125 8.56602C10.8042 8.95768 11 9.42852 11 9.97852V15.4785H9.5V22.9785H5.5ZM7.5 6.97852C6.95 6.97852 6.47917 6.78268 6.0875 6.39102C5.69583 5.99935 5.5 5.52852 5.5 4.97852C5.5 4.42852 5.69583 3.95768 6.0875 3.56602C6.47917 3.17435 6.95 2.97852 7.5 2.97852C8.05 2.97852 8.52083 3.17435 8.9125 3.56602C9.30417 3.95768 9.5 4.42852 9.5 4.97852C9.5 5.52852 9.30417 5.99935 8.9125 6.39102C8.52083 6.78268 8.05 6.97852 7.5 6.97852ZM15 22.9785V16.9785H12L14.55 9.32852C14.6833 8.89518 14.9292 8.56185 15.2875 8.32852C15.6458 8.09518 16.05 7.97852 16.5 7.97852C16.95 7.97852 17.3542 8.09518 17.7125 8.32852C18.0708 8.56185 18.3167 8.89518 18.45 9.32852L21 16.9785H18V22.9785H15ZM16.5 6.97852C15.95 6.97852 15.4792 6.78268 15.0875 6.39102C14.6958 5.99935 14.5 5.52852 14.5 4.97852C14.5 4.42852 14.6958 3.95768 15.0875 3.56602C15.4792 3.17435 15.95 2.97852 16.5 2.97852C17.05 2.97852 17.5208 3.17435 17.9125 3.56602C18.3042 3.95768 18.5 4.42852 18.5 4.97852C18.5 5.52852 18.3042 5.99935 17.9125 6.39102C17.5208 6.78268 17.05 6.97852 16.5 6.97852Z" fill="#1E2859"/>
</g>
</g>
</svg>
