<svg xmlns="http://www.w3.org/2000/svg" width="30" height="30" viewBox="0 0 30 30" fill="none">
  <path d="M14.9999 3C15.6234 3 16.1249 3.50156 16.1249 4.125V6.28594L17.2031 5.20781C17.6437 4.76719 18.3562 4.76719 18.7921 5.20781C19.2281 5.64844 19.2327 6.36094 18.7921 6.79688L16.1202 9.46875V13.0547L19.2234 11.2641L20.2031 7.61719C20.3624 7.01719 20.9812 6.66094 21.5812 6.82031C22.1812 6.97969 22.5374 7.59844 22.3781 8.19844L21.9843 9.66562L23.7234 8.6625C24.2624 8.35313 24.9515 8.53594 25.2609 9.075C25.5702 9.61406 25.3874 10.3031 24.8484 10.6125L23.1093 11.6156L24.5859 12.0094C25.1859 12.1687 25.5421 12.7875 25.3827 13.3875C25.2234 13.9875 24.6046 14.3438 24.0046 14.1844L20.3577 13.2047L17.2499 15L20.3531 16.7906L23.9999 15.8109C24.5999 15.6516 25.2187 16.0078 25.3781 16.6078C25.5374 17.2078 25.1812 17.8266 24.5812 17.9859L23.1093 18.3844L24.8484 19.3875C25.3874 19.6969 25.5702 20.3859 25.2609 20.925C24.9515 21.4641 24.2624 21.6469 23.7234 21.3375L21.9843 20.3344L22.3781 21.8109C22.5374 22.4109 22.1812 23.0297 21.5812 23.1891C20.9812 23.3484 20.3624 22.9922 20.2031 22.3922L19.2234 18.7453L16.1249 16.95V20.5359L18.7968 23.2078C19.2374 23.6484 19.2374 24.3609 18.7968 24.7969C18.3562 25.2328 17.6437 25.2375 17.2077 24.7969L16.1296 23.7188V25.8797C16.1296 26.5031 15.6281 27.0047 15.0046 27.0047C14.3812 27.0047 13.8796 26.5031 13.8796 25.8797V23.7188L12.8015 24.7969C12.3609 25.2375 11.6484 25.2375 11.2124 24.7969C10.7765 24.3563 10.7718 23.6438 11.2124 23.2078L13.8843 20.5359V16.95L10.7812 18.7406L9.80149 22.3875C9.64212 22.9875 9.02337 23.3438 8.42337 23.1844C7.82337 23.025 7.46712 22.4062 7.62649 21.8063L8.01556 20.3344L6.27649 21.3375C5.73743 21.6469 5.04837 21.4641 4.73899 20.925C4.42962 20.3859 4.61243 19.6969 5.15149 19.3875L6.89056 18.3844L5.41399 17.9906C4.81399 17.8312 4.45774 17.2125 4.61712 16.6125C4.77649 16.0125 5.39524 15.6562 5.99524 15.8156L9.64212 16.7953L12.7499 15L9.64681 13.2094L5.99524 14.1844C5.39524 14.3438 4.77649 13.9875 4.61712 13.3875C4.45774 12.7875 4.81399 12.1687 5.41399 12.0094L6.89056 11.6156L5.15149 10.6125C4.61243 10.3031 4.42962 9.61406 4.73899 9.075C5.04837 8.53594 5.73743 8.35313 6.27649 8.6625L8.01556 9.66562L7.62181 8.18906C7.46243 7.58906 7.81868 6.97031 8.41868 6.81094C9.01868 6.65156 9.63743 7.00781 9.79681 7.60781L10.7765 11.2547L13.8749 13.05V9.46406L11.2031 6.79688C10.7624 6.35625 10.7624 5.64375 11.2031 5.20781C11.6437 4.77187 12.3562 4.76719 12.7921 5.20781L13.8702 6.28594L13.8749 4.125C13.8749 3.50156 14.3765 3 14.9999 3Z" fill="#404040"/>
</svg>